<svg xmlns="http://www.w3.org/2000/svg" version="1" viewBox="0 0 48 48" enable-background="new 0 0 48 48">
    <rect x="204" fill="none" width="48" height="48"/>
    <polygon fill="#96c795" points="244,45 212,45 212,3 234,3 244,13"/>
    <polygon fill="#eaffea" points="242.5,14 233,14 233,4.5"/>
    <g fill="#319528">
        <circle cx="227" cy="30" r="4" fill="#319528"/>
        <polygon points="234,21 229,19 229,30 231,30 231,22.9 234,24" fill="#319528"/>
    </g>
    <polygon fill="#96c795" points="40,45 8,45 8,3 30,3 40,13"/>
    <polygon fill="#eaffea" points="38.5,14 29,14 29,4.5"/>
    <g fill="#319528">
        <circle cx="23" cy="30" r="4" fill="#319528"/>
        <polygon points="30,21 25,19 25,30 27,30 27,22.9 30,24" fill="#319528"/>
    </g>
</svg>