<svg xmlns="http://www.w3.org/2000/svg" version="1.2" viewBox="0 0 1000 1000" width="1000" height="1000">
	<title>2989094-ai</title>
	<style>
		.s0 { fill: #ebebeb } 
		.s1 { fill: #f0f0f0 } 
		.s2 { fill: #e6e6e6 } 
		.s3 { fill: #e0e0e0 } 
		.s4 { fill: #fafafa } 
		.s5 { fill: #f5f5f5 } 
		.s6 { fill: #ffffff } 
		.s7 { fill: #263238 } 
		.s8 { fill: #ffc3bd } 
		.s9 { fill: #319527 } 
		.s10 { opacity: .5;fill: #000000 } 
		.s11 { opacity: .2;fill: #000000 } 
		.s12 { fill: #ed847e } 
		.s13 { opacity: .1;fill: #000000 } 
		.s14 { opacity: .7;fill: #fafafa } 
		.s15 { opacity: .1;fill: #263238 } 
		.s16 { opacity: .1;fill: #ffffff } 
	</style>
	<g id="Background Complete">
		<g id="&lt;Group&gt;">
			<path id="&lt;Path&gt;" class="s0" d="m1000 765.3h-1000v-0.5h1000z" fill="#000000"/>
			<path id="&lt;Path&gt;" class="s0" d="m209.1 778.9h66.2v-0.5h-66.2z" fill="#000000"/>
			<path id="&lt;Path&gt;" class="s0" d="m423.8 796.7h-81.5v0.5h81.5z" fill="#000000"/>
			<path id="&lt;Path&gt;" class="s0" d="m104.9 791h102.2v-0.5h-102.2z" fill="#000000"/>
			<path id="&lt;Path&gt;" class="s0" d="m899.8 781.8h-186.3v0.5h186.3z" fill="#000000"/>
			<path id="&lt;Path&gt;" class="s0" d="m695.7 781.8h-12.6v0.5h12.6z" fill="#000000"/>
			<path id="&lt;Path&gt;" class="s0" d="m638.9 790.2h-84.5v0.5h84.5z" fill="#000000"/>
			<path id="&lt;Compound Path&gt;" fill-rule="evenodd" class="s0" d="m474 675.6h-386.2c-6.3 0-11.4-5.1-11.4-11.4v-542.9c0-6.3 5.1-11.4 11.4-11.4h386.2c6.3 0 11.4 5.1 11.4 11.4v542.9c0 6.3-5.1 11.4-11.4 11.4zm-386.2-565.2c-6 0-10.9 4.9-10.9 10.9v542.9c0 6 4.9 10.9 10.9 10.9h386.2c6 0 10.9-4.9 10.9-10.9v-542.9c0-6-4.9-10.9-10.9-10.9z" fill="#000000"/>
			<path id="&lt;Compound Path&gt;" fill-rule="evenodd" class="s0" d="m906.6 675.6h-386.2c-6.3 0-11.4-5.1-11.4-11.4v-542.9c0-6.3 5.1-11.4 11.4-11.4h386.2c6.3 0 11.4 5.1 11.4 11.4v542.9c0 6.3-5.1 11.4-11.4 11.4zm-386.2-565.2c-6 0-10.9 4.9-10.9 10.9v542.9c0 6 4.9 10.9 10.9 10.9h386.2c6 0 10.9-4.9 10.9-10.9v-542.9c0-6-4.9-10.9-10.9-10.9z" fill="#000000"/>
		</g>
		<g id="&lt;Group&gt;">
			<g id="&lt;Group&gt;">
				<g id="&lt;Group&gt;">
					<path id="&lt;Path&gt;" class="s1" d="m299.3 764.8v-402.4h161.5v402.4z" fill="#000000"/>
					<path id="&lt;Path&gt;" class="s2" d="m308.1 491v-118.5h143.8v118.5z" fill="#000000"/>
					<path id="&lt;Path&gt;" class="s2" d="m308.1 620v-118.4h143.8v118.4z" fill="#000000"/>
					<path id="&lt;Path&gt;" class="s2" d="m308.1 749.1v-118.4h143.8v118.4z" fill="#000000"/>
					<path id="&lt;Path&gt;" class="s3" d="m395.4 491v-118.5h56.5v118.5z" fill="#000000"/>
					<path id="&lt;Path&gt;" class="s3" d="m395.4 620v-118.4h56.5v118.4z" fill="#000000"/>
					<g id="&lt;Group&gt;">
						<g id="&lt;Group&gt;">
							<path id="&lt;Path&gt;" class="s4" d="m370.1 572.7h-39.2v47.3h39.2z" fill="#000000"/>
							<path id="&lt;Path&gt;" class="s1" d="m314.3 572.7h16.6v47.3h-16.6z" fill="#000000"/>
						</g>
						<g id="&lt;Group&gt;">
							<path id="&lt;Path&gt;" class="s4" d="m433.3 572.7h-39.1v47.3h39.1z" fill="#000000"/>
							<path id="&lt;Path&gt;" class="s1" d="m377.6 572.7h16.6v47.3h-16.6z" fill="#000000"/>
						</g>
						<g id="&lt;Group&gt;">
							<path id="&lt;Path&gt;" class="s4" d="m402.4 525.4h-39.2v47.3h39.2z" fill="#000000"/>
							<path id="&lt;Path&gt;" class="s1" d="m346.7 525.4h16.5v47.3h-16.5z" fill="#000000"/>
						</g>
					</g>
					<path id="&lt;Path&gt;" class="s3" d="m395.4 749.1v-118.4h56.5v118.4z" fill="#000000"/>
					<path id="&lt;Path&gt;" class="s5" d="m255.4 764.8v-402.4h43.9v402.4z" fill="#000000"/>
				</g>
				<path id="&lt;Path&gt;" class="s1" d="m325.4 647.8h116.8v101.3h-116.8z" fill="#000000"/>
				<path id="&lt;Path&gt;" class="s3" d="m325.4 647.8h-17.3l0.1 101.3h17.2z" fill="#000000"/>
				<path id="&lt;Path&gt;" class="s1" d="m325.4 389.6h116.8v101.4h-116.8z" fill="#000000"/>
				<path id="&lt;Path&gt;" class="s3" d="m325.4 389.6h-17.3l0.1 101.4h17.2z" fill="#000000"/>
			</g>
			<g id="&lt;Group&gt;">
				<path id="&lt;Path&gt;" class="s4" d="m573.8 764.8v-589.5h278.2v589.5z" fill="#000000"/>
				<path id="&lt;Path&gt;" class="s1" d="m573.8 764.8v-589.5h-1.1v589.5z" fill="#000000"/>
				<path id="&lt;Path&gt;" class="s2" d="m821 764.8h-227.1v-570.1h227.1z" fill="#000000"/>
				<path id="&lt;Path&gt;" class="s1" d="m833.2 764.8h-233.6v-570.1h233.6z" fill="#000000"/>
				<path id="&lt;Path&gt;" class="s3" d="m816.1 484.5v7.2l7.2-7.2z" fill="#000000"/>
				<path id="&lt;Path&gt;" class="s4" d="m616.6 747.8v-536.1h199.5v536.1z" fill="#000000"/>
				<path id="&lt;Path&gt;" class="s5" d="m779 481.6c-3 0-5.5 2.4-5.5 5.5 0 3 2.5 5.5 5.5 5.5h35v-11z" fill="#000000"/>
				<path id="&lt;Path&gt;" class="s6" d="m660.4 747.8l60.9-536.1h41l-60.9 536.1z" fill="#000000"/>
				<path id="&lt;Path&gt;" class="s6" d="m710.2 747.8l60.9-536.1h16l-60.9 536.1z" fill="#000000"/>
				<path id="&lt;Path&gt;" class="s2" d="m814 747.8v-536.1h2.1v536.1z" fill="#000000"/>
				<path id="&lt;Path&gt;" class="s0" d="m821.4 485.3h-34.9c-3.1 0-5.5-2.5-5.5-5.6 0-3 2.4-5.5 5.5-5.5h34.9c3.1 0 5.5 2.5 5.5 5.5 0 3.1-2.4 5.6-5.5 5.6z" fill="#000000"/>
			</g>
			<g id="&lt;Group&gt;">
				<g id="&lt;Group&gt;">
					<g id="&lt;Group&gt;">
						<path id="&lt;Path&gt;" class="s3" d="m226.1 243.7h-98.2v156.2h98.2z" fill="#000000"/>
						<path id="&lt;Path&gt;" class="s5" d="m232 243.7h-101.5v156.2h101.5z" fill="#000000"/>
						<path id="&lt;Path&gt;" class="s6" d="m139 255.1v133.4h84.5v-133.4z" fill="#000000"/>
					</g>
				</g>
				<g id="&lt;Group&gt;">
					<g id="&lt;Group&gt;">
						<path id="&lt;Path&gt;" class="s3" d="m364.7 168.3h-98.1v156.2h98.1z" fill="#000000"/>
						<path id="&lt;Path&gt;" class="s5" d="m370.7 168.3h-101.5v156.2h101.5z" fill="#000000"/>
						<path id="&lt;Path&gt;" class="s6" d="m277.7 179.7v133.4h84.5v-133.4z" fill="#000000"/>
					</g>
				</g>
			</g>
		</g>
	</g>
	<g id="Shadow">
		<path id="&lt;Path&gt; 120 " class="s5" d="m887.8 832.5c0 12.5-173.6 22.6-387.8 22.6-214.2 0-387.8-10.1-387.8-22.6 0-12.5 173.6-22.7 387.8-22.7 214.2 0 387.8 10.2 387.8 22.7z" fill="#000000"/>
	</g>
	<g id="Character">
		<g id="&lt;Group&gt;">
			<path id="&lt;Path&gt;" class="s7" d="m327.3 250.5c4.3 5.7 4.8 12.7 0.2 23.9-2 4.6-4.6 9.1-10.4 1.4-5.9-7.8-10.8-22-2.1-23.3 8.7-1.3 12.3-2 12.3-2z" fill="#000000"/>
			<path id="&lt;Path&gt;" class="s8" d="m325.4 813.8h14.9l0.6-34.4h-14.9z" fill="#000000"/>
			<path id="&lt;Path&gt;" class="s8" d="m215.1 787.4l14.4 3.6 14.9-31.7-14.4-3.6z" fill="#000000"/>
			<path id="&lt;Path&gt;" class="s7" d="m231.4 789.5l-15.8-5.3c-0.6-0.2-1.2 0-1.5 0.5l-6.7 11.7c-0.7 1.2-0.1 2.8 1.2 3.2 5.6 1.8 8.4 2.4 15.3 4.7 4.3 1.5 16.5 6.6 22.4 8.6 5.8 2 8.5-3.6 6.3-5-10.1-6-16.7-12.4-19.2-16.7-0.4-0.8-1.2-1.4-2-1.7z" fill="#000000"/>
			<path id="&lt;Path&gt;" class="s7" d="m340.1 812.1h-16.2c-0.6 0-1.1 0.4-1.2 1l-2.7 13.2c-0.2 1.3 0.8 2.6 2.3 2.6 5.8-0.1 14.3-0.4 21.6-0.4 8.6 0 10.4 0.4 20.5 0.4 6.1 0 7.6-6.1 5.1-6.7-11.7-2.5-15.6-2.8-25.8-9-1.1-0.7-2.3-1.1-3.6-1.1z" fill="#000000"/>
			<path id="&lt;Path&gt;" class="s8" d="m336.3 343.8l20.2-6.5c0 0 21 48.5 28 51.6 9.6 4.1 17 10.8 29.3 12 1.7 1.9 4.4 8 4.1 10.3-16.4 6.2-41.8-0.4-48.8-6.8-15.9-14.8-32.8-60.6-32.8-60.6z" fill="#000000"/>
			<path id="&lt;Path&gt;" class="s9" d="m331.5 332.7c-5.7 13 17.2 54.2 17.2 54.2l30.3-14c0 0-5.7-20.2-15-36.3-9.5-16.5-26.2-18.2-32.5-3.9z" fill="#000000"/>
			<path id="&lt;Path&gt;" class="s10" d="m331.5 332.7c-5.7 13 17.2 54.2 17.2 54.2l30.3-14c0 0-5.7-20.2-15-36.3-9.5-16.5-26.2-18.2-32.5-3.9z" fill="#000000"/>
			<path id="&lt;Path&gt;" class="s8" d="m411.3 400.9l11.5-6 5.8 16.9c0 0-3.8 1.6-14.4 0.3z" fill="#000000"/>
			<path id="&lt;Path&gt;" class="s8" d="m434.2 390.7l3.6 14.3-9.2 6.8-5.8-16.9z" fill="#000000"/>
			<g id="&lt;Group&gt;">
				<path id="&lt;Path&gt;" class="s11" d="m340.9 779.4l-0.3 17.7h-14.9l0.3-17.7z" fill="#000000"/>
				<path id="&lt;Path&gt;" class="s11" d="m230 755.7l14.4 3.6-7.7 16.4-14.4-3.7z" fill="#000000"/>
			</g>
			<path id="&lt;Path&gt;" class="s9" d="m350.9 324.2c0 0 18.7 51.1 4.1 134.6-24 0-67.9 0-79.5 0-0.9-12.2 5.4-77.9-7.8-135.3 0 0 13.5-2.8 26.5-3.4 10.1-0.5 24.8-0.8 33.8 0 11.8 1.1 22.9 4.1 22.9 4.1z" fill="#000000"/>
			<path id="&lt;Path&gt;" class="s10" d="m350.9 324.2c0 0 18.7 51.1 4.1 134.6-24 0-67.9 0-79.5 0-0.9-12.2 5.4-77.9-7.8-135.3 0 0 13.5-2.8 26.5-3.4 10.1-0.5 24.8-0.8 33.8 0 11.8 1.1 22.9 4.1 22.9 4.1z" fill="#000000"/>
			<path id="&lt;Path&gt;" class="s11" d="m285.3 337.7c1.5 9.4-0.9 32-9.3 58.2-0.5-20.1-2.3-43.5-7.1-66.7v-0.1c5.2-0.6 14.9-0.3 16.4 8.6z" fill="#000000"/>
			<path id="&lt;Path&gt;" class="s8" d="m297.8 288.5c2.4 10.9 3.8 24.3-3.6 31.6 0 0 4.6 11 24.8 11 18.5 0 9-11 9-11-12.2-2.9-11.9-17.9-10-26.3z" fill="#000000"/>
			<path id="&lt;Path&gt;" class="s6" d="m319 331.1c-3.5 5.5-3.6 10.5-3.6 10.5 0 0-25.5-9-24.6-22 0 0 3.5-2.2 5.7-3.9 0 0 1.1 10.2 22.5 15.4z" fill="#000000"/>
			<path id="&lt;Path&gt;" class="s6" d="m319 331.1c3.9 5.5 5.2 9.7 5.2 9.7 0 0 11.3-7.8 7.6-20.7 0 0-3.3-1.4-6.6-2.1 0 0 1.7 10.3-6.2 13.1z" fill="#000000"/>
			<path id="&lt;Path&gt;" class="s11" d="m318 293.8c-1.2 4.9-1.7 12.1 0.5 17.8-1.8-0.2-3.6-0.8-5.5-1.6-6.9-3.3-10.4-8.3-14.1-15.9q-0.4-2.8-1.1-5.6z" fill="#000000"/>
			<g id="&lt;Group&gt;">
				<path id="&lt;Path&gt;" class="s8" d="m336.5 284.6c-1.6 3.6-4.7 6-7.8 7.1-4.6 1.5-7.3-2.6-6.3-7.2 0.9-4.1 4.4-9.8 9.2-9.4 4.7 0.4 6.8 5.3 4.9 9.5z" fill="#000000"/>
				<path id="&lt;Path&gt;" class="s11" d="m336.5 284.6c-1.6 3.6-4.7 6-7.8 7.1-4.6 1.5-7.3-2.6-6.3-7.2 0.9-4.1 4.4-9.8 9.2-9.4 4.7 0.4 6.8 5.3 4.9 9.5z" fill="#000000"/>
			</g>
			<path id="&lt;Path&gt;" class="s8" d="m291.1 272.9c2.7 14.6 3.6 23.3 11.8 30.1 12.5 10.2 29.6 1.6 31.2-13.5 1.5-13.5-3.2-35.2-18.1-39.6-14.8-4.3-27.6 8.4-24.9 23z" fill="#000000"/>
			<path id="&lt;Path&gt;" class="s7" d="m301.2 256.2c3.4 6.3 1.6 10.4-3 21.5-1.9 4.7-5.2 9.6-10.4 1.4-5-7.7-12.5-22-6-23.5 8.6-2 19.4 0.6 19.4 0.6z" fill="#000000"/>
			<path id="&lt;Path&gt;" class="s7" d="m297 260.3c6.1 1.9 10.7-1 11.9-3.9 4.8 2.1 11.1 2.4 13.1-0.3 3.9 0 8.3 0.7 10.2-5 1.9-5.8-0.4-10.9-6.7-13.8-0.2 1.3-3.4 2.9-6.5 0.8-3-2.1-8.6-1.5-11.1 0.7-6.5-1.7-11.1-2.6-14.9 1.7-6.2-1.3-13.8 4.3-12.7 9.2-4.9 6.1-0.2 11 4.8 11.8 1 2.6 10.6 1.3 11.9-1.2z" fill="#000000"/>
			<path id="&lt;Path&gt;" class="s8" d="m286.5 289.8c2.5 3.2 6.2 4.9 9.4 5.3 4.9 0.6 6.4-4 4.4-8.2-1.9-3.9-6.7-8.7-11.2-7.3-4.5 1.3-5.4 6.6-2.6 10.2z" fill="#000000"/>
			<path id="&lt;Path&gt;" class="s7" d="m302.7 458.8c0 0 1.6 18.7 3.6 44 2.3 28.7 5.1 66 6.8 94.4q0 0.2 0 0.4c0.4 5.4 0.6 10.4 0.9 15 2.2 46.3 6.9 181.1 6.9 181.1h25.1c0 0 12.7-137.5 13.2-184.6 0.5-45.4-4.2-150.3-4.2-150.3z" fill="#000000"/>
			<path id="&lt;Path&gt;" class="s9" d="m319 786c-0.1 0 0.2 8.2 0.2 8.2h29l1-9.3z" fill="#000000"/>
			<path id="&lt;Path&gt;" class="s11" d="m306.3 502.8c2.3 28.7 5.1 66 6.8 94.4q0 0.2 0 0.4c6.2-26.9 8.7-60.4 7.8-115.5z" fill="#000000"/>
			<path id="&lt;Path&gt;" class="s7" d="m326.8 458.8c0 0-14.1 107.4-22.3 149.9-9 46.6-60.3 165.3-60.3 165.3l-26.4-6.7c0 0 37.6-108.2 42.2-154.3 5.1-50.1 15.5-154.2 15.5-154.2z" fill="#000000"/>
			<path id="&lt;Path&gt;" class="s9" d="m219.4 760.4c-0.1 0-3 7.1-3 7.1l28.9 7.4 4.6-7.9z" fill="#000000"/>
			<path id="&lt;Path&gt;" class="s7" d="m313.6 274.7c0.2 1.2 0.9 2.1 1.7 2 0.8-0.1 1.3-1.1 1.1-2.3-0.1-1.2-0.9-2.1-1.6-2-0.8 0.1-1.3 1.1-1.2 2.3z" fill="#000000"/>
			<path id="&lt;Path&gt;" class="s7" d="m327 273.3c0.1 1.2 0.9 2.1 1.7 2 0.7-0.1 1.2-1.1 1.1-2.3-0.2-1.2-0.9-2.1-1.7-2-0.8 0.1-1.3 1.1-1.1 2.3z" fill="#000000"/>
			<path id="&lt;Path&gt;" class="s12" d="m322.8 274.3c0 0 3.6 6.7 6.9 9.7-1.8 2.2-5.5 1.7-5.5 1.7z" fill="#000000"/>
			<path id="&lt;Path&gt;" class="s7" d="m321.2 289c0.2 0 0.4-0.2 0.3-0.4 0-0.2-0.2-0.3-0.4-0.3-5.1 0.7-8.1-2.6-8.1-2.7-0.2-0.1-0.4-0.1-0.5 0-0.2 0.1-0.2 0.3-0.1 0.5 0.2 0.1 3.3 3.6 8.8 2.9z" fill="#000000"/>
			<path id="&lt;Path&gt;" class="s7" d="m309.1 270.7c0.2 0 0.4-0.1 0.5-0.3 1.5-2.7 4.1-2.8 4.1-2.8 0.4 0 0.7-0.3 0.7-0.7 0-0.4-0.4-0.7-0.7-0.7-0.2 0-3.4 0.1-5.3 3.5-0.2 0.3-0.1 0.7 0.2 0.9q0.2 0.2 0.5 0.1z" fill="#000000"/>
			<path id="&lt;Path&gt;" class="s7" d="m332.4 267.9q0.2-0.1 0.3-0.2c0.3-0.2 0.4-0.6 0.1-0.9-2.3-3.2-5.5-3.1-5.6-3.1-0.4 0-0.7 0.3-0.7 0.7 0 0.4 0.4 0.7 0.7 0.7 0.1 0 2.7-0.1 4.5 2.5 0.2 0.2 0.4 0.3 0.7 0.3z" fill="#000000"/>
			<path id="&lt;Path&gt;" class="s8" d="m260 345.7l19.1 10.2c0 0-21.8 47.2-18.9 54.3 3.8 9.5 9.9 30.6 16.6 41-0.6 2.4-3.8 8.1-5.8 9.3-15.3-9.4-32.8-41.5-33.1-50.8-0.7-21.3 22.1-64 22.1-64z" fill="#000000"/>
			<path id="&lt;Path&gt;" class="s9" d="m267.7 323.5c-14 2-28.9 50.7-28.9 50.7l29.9 16.7c0 0 12.4-23.2 18.4-40.4 6.3-18-4.4-29.2-19.4-27z" fill="#000000"/>
			<path id="&lt;Path&gt;" class="s10" d="m267.7 323.5c-14 2-28.9 50.7-28.9 50.7l29.9 16.7c0 0 12.4-23.2 18.4-40.4 6.3-18-4.4-29.2-19.4-27z" fill="#000000"/>
			<path id="&lt;Compound Path&gt;" fill-rule="evenodd" class="s9" d="m231.8 791.8c-0.2-0.1-0.2-0.2-0.2-0.3 0-0.2 0.1-0.3 0.2-0.3 0.7-0.2 6.1-1.4 7.4-0.1 0.2 0.2 0.4 0.6 0.3 1.1q-0.3 1.2-1.3 1.6c-0.8 0.3-1.9 0.1-2.9-0.2-1.3-0.5-2.6-1.2-3.5-1.8zm1.1-0.1c2.2 1.3 4.1 1.8 5 1.4q0.7-0.2 0.9-1.1c0-0.2 0-0.3-0.1-0.4q-0.2-0.2-0.4-0.2c-1.1-0.4-3.6-0.1-5.4 0.3z" fill="#000000"/>
			<path id="&lt;Compound Path&gt;" fill-rule="evenodd" class="s9" d="m231.7 791.7q-0.2-0.1-0.1-0.3c0.1-0.2 1.7-4.2 3.7-5q0.8-0.3 1.6 0.1c0.8 0.4 0.8 0.9 0.8 1.2-0.2 1.7-4 3.9-5.7 4.2q-0.1 0-0.2 0-0.1-0.1-0.1-0.2zm3.9-4.6c-1.3 0.5-2.5 2.7-3 3.9 1.7-0.6 4.3-2.4 4.4-3.4 0-0.1 0-0.3-0.4-0.5q-0.1 0-0.1 0-0.5-0.2-0.9 0z" fill="#000000"/>
			<path id="&lt;Compound Path&gt;" fill-rule="evenodd" class="s9" d="m341.7 814.1c-0.2 0-0.3-0.1-0.3-0.3 0-0.1 0-0.3 0.2-0.3 0.6-0.4 6.5-3.4 8.4-2.4q0.5 0.3 0.6 0.9 0.1 1.1-0.6 1.7c-0.8 0.7-2.2 0.9-3.6 0.9-1.7 0-3.4-0.2-4.7-0.5zm1.1-0.5c3.3 0.6 5.8 0.4 6.7-0.4q0.4-0.4 0.4-1.1 0-0.3-0.3-0.4-0.2-0.1-0.6-0.1c-1.4 0-4.1 1-6.2 2z" fill="#000000"/>
			<path id="&lt;Compound Path&gt;" fill-rule="evenodd" class="s9" d="m341.5 814.1q-0.1-0.2-0.1-0.4c0-0.1 0.3-4.1 2.2-5.7 0.5-0.5 1.2-0.7 1.9-0.6 1 0.1 1.3 0.6 1.3 1 0.3 1.7-3.1 4.9-4.9 5.7q-0.1 0-0.1 0-0.2 0-0.3 0zm2.5-5.5c-1.2 1-1.7 3.4-1.8 4.5 1.8-1.1 4.1-3.6 3.9-4.6 0-0.1 0-0.3-0.7-0.4q-0.1 0-0.2 0-0.6 0-1.2 0.5z" fill="#000000"/>
			<path id="&lt;Path&gt;" class="s8" d="m274 449.3l14.1 1.5-9.7 14.1c0 0-12.3-1.7-12.9-11.4z" fill="#000000"/>
			<path id="&lt;Path&gt;" class="s8" d="m296.1 456.2l-9.5 12.4-8.2-3.7 9.7-14.1z" fill="#000000"/>
		</g>
	</g>
	<g id="Nessage">
		<g id="&lt;Group&gt;">
			<g id="&lt;Group&gt;">
				<g id="&lt;Group&gt;">
					<path id="&lt;Path&gt;" class="s9" d="m800.4 448.5l13.9 162.2c1.1 13.2-6.9 24.8-17.9 25.7l-307.8 26.4c-11 1-20.9-9.1-22-22.2l-13.9-162.2c-0.3-3.2-0.1-6.3 0.7-9.1 2.2-9.1 8.8-15.9 17.2-16.6l307.7-26.4c8.4-0.8 16.1 4.9 19.8 13.4 1.2 2.7 2 5.7 2.3 8.8z" fill="#000000"/>
					<path id="&lt;Path&gt;" class="s13" d="m800.4 448.5l13.9 162.2c1.1 13.2-6.9 24.8-17.9 25.7l-307.8 26.4c-11 1-20.9-9.1-22-22.2l-13.9-162.2c-0.3-3.2-0.1-6.3 0.7-9.1 2.2-9.1 8.8-15.9 17.2-16.6l307.7-26.4c8.4-0.8 16.1 4.9 19.8 13.4 1.2 2.7 2 5.7 2.3 8.8z" fill="#000000"/>
				</g>
				<path id="&lt;Path&gt;" class="s9" d="m835.6 551.6l-0.8-7.3 2.1-0.3 0.9 7.4z" fill="#000000"/>
				<path id="&lt;Path&gt;" class="s9" d="m833.8 536.3l-3.3-27.2 2.2-0.3 3.3 27.2z" fill="#000000"/>
				<path id="&lt;Path&gt;" class="s9" d="m814.2 419.5l20.1 166.4c1.6 13.5-6.3 25.7-17.6 27l-315.5 38.2c-11.3 1.4-21.9-8.6-23.5-22.1l-20.2-166.3c-0.3-3.3-0.2-6.4 0.4-9.4 2-9.4 8.6-16.7 17.2-17.7l315.6-38.2c8.5-1 16.7 4.5 20.8 13.1 1.4 2.7 2.3 5.8 2.7 9z" fill="#000000"/>
				<path id="&lt;Path&gt;" class="s13" d="m811.5 410.5l-143.1 96.4c-14.5 9.8-32 11.9-48.5 5.9l-162-59.5c2-9.4 8.6-16.7 17.2-17.7l315.6-38.2c8.5-1 16.7 4.5 20.8 13.1z" fill="#000000"/>
				<g id="&lt;Group&gt;">
					<path id="&lt;Path&gt;" class="s9" d="m758.1 446.5l-41.1 27.6-13.4 9.1-35.2 23.7c-14.2 9.5-31.2 11.8-47.2 6.3q-0.7-0.2-1.3-0.4l-19.7-7.3-44.4-16.3-20.8-7.6-23.5-8.6-1.7-41.6-3.7-92.4 180.6-7.4 68.9 52.2 0.7 17.8z" fill="#000000"/>
					<path id="&lt;Path&gt;" class="s14" d="m758.1 446.5l-41.1 27.6-13.4 9.1-35.2 23.7c-14.2 9.5-31.2 11.8-47.2 6.3q-0.7-0.2-1.3-0.4l-19.7-7.3-44.4-16.3-20.8-7.6-23.5-8.6-1.7-41.6-3.7-92.4 180.6-7.4 68.9 52.2 0.7 17.8z" fill="#000000"/>
					<g id="&lt;Group&gt;" style="opacity: .9">
						<path id="&lt;Path&gt;" class="s6" d="m732.7 402.2l-200 8.1c-2.4 0.1-4.4-1.7-4.5-4.1 0-2.3 1.8-4.3 4.1-4.4l200-8.1c2.4-0.1 4.4 1.7 4.5 4.1 0 2.3-1.8 4.3-4.1 4.4z" fill="#000000"/>
						<path id="&lt;Path&gt;" class="s6" d="m733.7 428.8l-199.9 8.1c-2.4 0.1-4.4-1.7-4.5-4.1-0.1-2.3 1.8-4.3 4.1-4.4l200-8.1c2.3-0.1 4.3 1.7 4.4 4 0.1 2.4-1.7 4.4-4.1 4.5z" fill="#000000"/>
						<path id="&lt;Path&gt;" class="s6" d="m734.8 455.3l-200 8.2c-2.3 0.1-4.3-1.8-4.4-4.1-0.1-2.4 1.7-4.3 4.1-4.4l200-8.2c2.3-0.1 4.3 1.8 4.4 4.1 0.1 2.4-1.7 4.3-4.1 4.4z" fill="#000000"/>
						<path id="&lt;Path&gt;" class="s6" d="m717 474.1l-13.4 9.1-147.8 6-20.8-7.6q0.3-0.1 0.6-0.1z" fill="#000000"/>
						<path id="&lt;Path&gt;" class="s6" d="m662.3 507.2v0.2c0 2.3-1.8 4.2-4.1 4.3l-37 1.5q-0.7-0.2-1.3-0.4l-19.7-7.3 57.7-2.3c2.3-0.1 4.3 1.7 4.4 4z" fill="#000000"/>
					</g>
					<path id="&lt;Path&gt;" class="s15" d="m755.6 383.8l-47.8-2-21.1-50.2z" fill="#000000"/>
					<path id="&lt;Path&gt;" class="s9" d="m755.6 383.8l-46.4-7.9-22.5-44.3z" fill="#000000"/>
				</g>
			</g>
			<g id="&lt;Group&gt;">
				<path id="&lt;Path&gt;" class="s9" d="m847.6 189.9c0 40.6-44.6 80.6-51.2 80.6-6.7 0-51.3-40-51.3-80.6 0-27.3 22.9-49.4 51.3-49.4 28.3 0 51.2 22.1 51.2 49.4z" fill="#000000"/>
				<path id="&lt;Path&gt;" class="s16" d="m786.8 179.7c-9.2 10.2-21.8 13.8-28.1 8.1-6.3-5.7-3.8-18.6 5.4-28.7 9.3-10.2 21.9-13.9 28.2-8.2 6.3 5.8 3.8 18.6-5.5 28.8z" fill="#000000"/>
				<path id="&lt;Path&gt;" class="s16" d="m759.5 220.7c-1.2-3-0.9-6 0.7-6.7 1.6-0.6 3.9 1.3 5.2 4.3 1.2 3.1 0.9 6.1-0.8 6.7-1.6 0.7-3.9-1.3-5.1-4.3z" fill="#000000"/>
				<path id="&lt;Path&gt;" class="s7" d="m794.2 398.5c-0.5 0-0.9-0.4-0.9-0.8 0-3.8 1.2-5.7 2.4-7.5 1-1.8 2-3.4 2-6.7 0-3.3-1-5-2-6.7-1.2-1.8-2.4-3.8-2.4-7.5 0-3.8 1.2-5.7 2.4-7.6 1-1.7 2-3.3 2-6.7 0-3.3-1-4.9-2-6.6-1.2-1.9-2.4-3.8-2.4-7.5 0-3.8 1.2-5.7 2.4-7.6 1-1.7 2-3.3 2-6.6 0-3.4-1-5-2-6.7-1.2-1.9-2.4-3.8-2.4-7.5 0-3.8 1.2-5.7 2.4-7.6 1-1.7 2-3.3 2-6.6 0-3.4-1-5-2-6.7-1.2-1.9-2.4-3.8-2.4-7.5 0-3.8 1.2-5.7 2.4-7.6 1-1.7 2-3.3 2-6.6 0-0.5 0.4-0.9 0.8-0.9 0.5 0 0.9 0.4 0.9 0.9 0 3.7-1.2 5.6-2.3 7.5-1.1 1.7-2.1 3.3-2.1 6.7 0 3.3 1 4.9 2.1 6.6 1.1 1.9 2.3 3.8 2.3 7.6 0 3.7-1.2 5.6-2.3 7.5-1.1 1.7-2.1 3.3-2.1 6.7 0 3.3 1 4.9 2.1 6.6 1.1 1.9 2.3 3.8 2.3 7.6 0 3.7-1.2 5.6-2.3 7.5-1.1 1.7-2.1 3.3-2.1 6.7 0 3.3 1 4.9 2.1 6.6 1.1 1.9 2.3 3.8 2.3 7.5 0 3.8-1.2 5.7-2.3 7.6-1.1 1.7-2.1 3.3-2.1 6.7 0 3.3 1 4.9 2.1 6.6 1.1 1.9 2.3 3.8 2.3 7.6 0 3.8-1.2 5.7-2.3 7.5-1.1 1.7-2.1 3.4-2.1 6.7 0 0.4-0.4 0.8-0.8 0.8z" fill="#000000"/>
				<path id="&lt;Path&gt;" class="s9" d="m796.4 268.6c-1.6 0-12.1 9.4-12.1 19h24.1c0-9.6-10.5-19-12-19z" fill="#000000"/>
				<path id="&lt;Path&gt;" class="s7" d="m798.7 270.8h-4.7c-0.4 0-0.7-0.3-0.7-0.7v-0.5c0-0.4 0.3-0.7 0.7-0.7h4.7c0.4 0 0.7 0.3 0.7 0.7v0.5c0 0.4-0.3 0.7-0.7 0.7z" fill="#000000"/>
			</g>
			<g id="&lt;Group&gt;">
				<path id="&lt;Path&gt;" class="s7" d="m525.9 227.9c0 40.6-44.6 80.6-51.2 80.6-6.7 0-51.3-40-51.3-80.6 0-27.3 22.9-49.4 51.3-49.4 28.3 0 51.2 22.1 51.2 49.4z" fill="#000000"/>
				<path id="&lt;Path&gt;" class="s16" d="m466.4 219.4c-9.3 10.2-21.9 13.8-28.1 8.1-6.3-5.7-3.8-18.6 5.4-28.8 9.3-10.2 21.9-13.8 28.2-8.1 6.2 5.7 3.8 18.6-5.5 28.8z" fill="#000000"/>
				<path id="&lt;Path&gt;" class="s16" d="m439.1 260.4c-1.2-3.1-0.9-6.1 0.7-6.7 1.6-0.7 3.9 1.3 5.1 4.3 1.3 3 0.9 6-0.7 6.7-1.6 0.6-3.9-1.3-5.1-4.3z" fill="#000000"/>
				<path id="&lt;Path&gt;" class="s9" d="m472.5 436.5c-0.5 0-0.9-0.3-0.9-0.8 0-3.8 1.2-5.7 2.4-7.5 1-1.8 2-3.4 2-6.7 0-3.3-1-5-2-6.7-1.2-1.8-2.4-3.8-2.4-7.5 0-3.8 1.2-5.7 2.4-7.6 1-1.7 2-3.3 2-6.6 0-3.4-1-5-2-6.7-1.2-1.9-2.4-3.8-2.4-7.5 0-3.8 1.2-5.7 2.4-7.6 1-1.7 2-3.3 2-6.6 0-3.4-1-5-2-6.7-1.2-1.9-2.4-3.8-2.4-7.5 0-3.8 1.2-5.7 2.4-7.6 1-1.7 2-3.3 2-6.6 0-3.4-1-5-2-6.7-1.2-1.9-2.4-3.8-2.4-7.5 0-3.8 1.2-5.7 2.4-7.6 1-1.7 2-3.3 2-6.6 0-0.5 0.4-0.9 0.8-0.9 0.5 0 0.9 0.4 0.9 0.9 0 3.7-1.2 5.7-2.3 7.5-1.1 1.7-2.1 3.3-2.1 6.7 0 3.3 1 4.9 2.1 6.6 1.1 1.9 2.3 3.8 2.3 7.6 0 3.7-1.2 5.6-2.3 7.5-1.1 1.7-2.1 3.3-2.1 6.7 0 3.3 1 4.9 2.1 6.6 1.1 1.9 2.3 3.8 2.3 7.6 0 3.7-1.2 5.6-2.3 7.5-1.1 1.7-2.1 3.3-2.1 6.7 0 3.3 1 4.9 2.1 6.6 1.1 1.9 2.3 3.8 2.3 7.6 0 3.7-1.2 5.6-2.3 7.5-1.1 1.7-2.1 3.3-2.1 6.7 0 3.3 1 4.9 2.1 6.6 1.1 1.9 2.3 3.8 2.3 7.6 0 3.8-1.2 5.7-2.3 7.5-1.1 1.7-2.1 3.4-2.1 6.7 0 0.5-0.4 0.8-0.8 0.8z" fill="#000000"/>
				<path id="&lt;Path&gt;" class="s7" d="m474.7 306.6c-1.6 0-12.1 9.4-12.1 19h24.1c0-9.6-10.5-19-12-19z" fill="#000000"/>
				<path id="&lt;Path&gt;" class="s9" d="m477 308.8h-4.7c-0.4 0-0.7-0.3-0.7-0.7v-0.5c0-0.4 0.3-0.7 0.7-0.7h4.7c0.4 0 0.7 0.3 0.7 0.7v0.5c0 0.4-0.3 0.7-0.7 0.7z" fill="#000000"/>
			</g>
		</g>
	</g>
</svg>