<svg xmlns="http://www.w3.org/2000/svg" version="1.2" viewBox="0 0 1500 1000" width="1500" height="1000">
	<title>6029644-ai</title>
	<style>
		.s0 { fill: #f5f5f5 } 
		.s1 { fill: #e0e0e0 } 
		.s2 { fill: #ebebeb } 
		.s3 { fill: #263238 } 
		.s4 { fill: #319527 } 
		.s5 { fill: #000000 } 
		.s6 { fill: none } 
		.s7 { fill: #ffbf9d } 
		.s8 { fill: #ff9a6c } 
		.s9 { fill: #ffffff } 
		.s10 { fill: #455a64 } 
		.s11 { fill: #fafafa } 
	</style>
	<g id="Background Complete">
		<g id="&lt;Group&gt;">
			<path id="&lt;Compound Path&gt;" fill-rule="evenodd" class="s0" d="m733.2 327c-1.6 0-3.2-0.3-4.7-0.8l-24.5-8.5c-4.9-1.7-8.6-5.9-9.5-11l-4.9-25.4c-1-5.1 0.8-10.4 4.7-13.8l19.6-16.9c3.9-3.4 9.4-4.5 14.3-2.8l24.5 8.5c4.9 1.7 8.5 5.9 9.5 11l4.9 25.4c0.9 5.1-0.9 10.4-4.8 13.8l-19.6 16.9c-2.7 2.4-6.1 3.6-9.5 3.6zm-23.2-24.1l22.9 7.9 18.3-15.9-4.6-23.7-22.9-8-18.3 15.9z" fill="#000000"/>
		</g>
		<g id="&lt;Group&gt;">
			<path id="&lt;Compound Path&gt;" fill-rule="evenodd" class="s0" d="m1018.9 253.1c-1.6 0-3.2-0.3-4.8-0.8l-12.4-4.3c-4.8-1.7-8.5-5.9-9.5-11l-2.4-12.9c-1-5.1 0.8-10.3 4.7-13.7l9.9-8.6c3.9-3.4 9.4-4.4 14.3-2.7l12.4 4.3c4.9 1.6 8.5 5.9 9.5 10.9l2.5 12.9c1 5.1-0.9 10.4-4.8 13.7l-9.9 8.6c-2.7 2.3-6.1 3.6-9.5 3.6zm-11.1-20l10.8 3.8 8.6-7.5-2.2-11.2-10.7-3.7-8.7 7.4z" fill="#000000"/>
		</g>
		<g id="&lt;Group&gt;">
			<path id="&lt;Compound Path&gt;" fill-rule="evenodd" class="s1" d="m1361.4 441.5c-3.2 0-6.2-1.4-8.3-3.9l-6.9-8.7c-2.4-2.9-3-6.9-1.6-10.4l4-10.4c1.4-3.5 4.5-6 8.2-6.6l11.1-1.7c3.7-0.6 7.4 0.9 9.8 3.8l7 8.7c2.3 3 2.9 6.9 1.6 10.4l-4.1 10.4c-1.4 3.5-4.5 6.1-8.2 6.6l-11.1 1.7q-0.7 0.1-1.5 0.1zm8.1-33.8q-0.2 0-0.4 0l-11.1 1.7c-0.9 0.1-1.6 0.7-1.9 1.6l-4.1 10.4c-0.3 0.8-0.2 1.8 0.4 2.5l7 8.7c0.5 0.7 1.5 1 2.3 0.9l11.1-1.7c0.9-0.1 1.6-0.7 1.9-1.6l4.1-10.4c0.3-0.8 0.2-1.8-0.4-2.5l-7-8.7c-0.5-0.6-1.2-0.9-1.9-0.9z" fill="#000000"/>
		</g>
		<g id="&lt;Group&gt;">
			<path id="&lt;Compound Path&gt;" fill-rule="evenodd" class="s1" d="m115.4 528.5c-4.1 0-8-1.9-10.6-5.1l-16.4-20.5c-3-3.7-3.8-8.9-2-13.3l9.5-24.5c1.7-4.5 5.8-7.7 10.5-8.5l26-3.9c4.7-0.8 9.6 1.1 12.6 4.9l16.4 20.4c3 3.8 3.8 8.9 2 13.4l-9.5 24.5c-1.7 4.5-5.8 7.7-10.5 8.4l-26 4q-1 0.2-2 0.2zm-15.9-34.1l16.1 20 25.4-3.9 9.3-23.9-16.1-20.1-25.4 3.9zm51-7.5z" fill="#000000"/>
		</g>
		<g id="&lt;Group&gt;">
			<path id="&lt;Compound Path&gt;" fill-rule="evenodd" class="s2" d="m181.8 349.2h-15.5c-3.8 0-7.2-2-9.1-5.3l-7.8-13.4c-1.8-3.2-1.8-7.2 0-10.5l7.8-13.4c1.9-3.2 5.3-5.2 9.1-5.2h15.5c3.7 0 7.2 2 9.1 5.2l7.7 13.4c1.9 3.3 1.9 7.3 0 10.5l-7.7 13.4c-1.9 3.3-5.4 5.3-9.1 5.3zm-15.5-39.8c-0.9 0-1.7 0.4-2.2 1.2l-7.7 13.4c-0.5 0.8-0.5 1.8 0 2.5l7.7 13.4c0.5 0.8 1.3 1.3 2.2 1.3h15.5c0.9 0 1.7-0.5 2.2-1.3l7.7-13.4c0.4-0.7 0.4-1.7 0-2.5l-7.7-13.4c-0.5-0.8-1.3-1.2-2.2-1.2z" fill="#000000"/>
		</g>
		<g id="&lt;Group&gt;">
			<g id="&lt;Group&gt;">
				<path id="&lt;Path&gt;" class="s2" d="m445.6 197.9l-30.2-19-37-62.5-51.5-31.5-10 10.8 5.2 7 16.3 21.8 64.5 86.7 26.4 14.5z" fill="#000000"/>
			</g>
			<g id="&lt;Group&gt;">
				<path id="&lt;Path&gt;" class="s2" d="m407.7 242.8l-8.7-28.7-94.8-108.4-12.7 7.5 20.1 57 55 54 12.4 33.8z" fill="#000000"/>
			</g>
			<g id="&lt;Group&gt;">
				<path id="&lt;Path&gt;" class="s1" d="m459 203.3c0 0 107.1 58.7 128.7 78.6 21.6 19.8 72 102.4 66.9 113-5.1 10.5-9 11.9-20.7 1.8-11.6-10.2-49.1-66.9-59.2-76-10.1-9.2-135.6-82.8-135.6-82.8z" fill="#000000"/>
			</g>
			<g id="&lt;Group&gt;">
				<g id="&lt;Group&gt;">
					<path id="&lt;Path&gt;" class="s2" d="m377.9 227.3c-18.1-4.7-29-23.2-24.3-41.3 4.7-18.1 23.2-29 41.4-24.3 18.1 4.7 29 23.2 24.3 41.4-4.8 18.1-23.3 29-41.4 24.2z" fill="#000000"/>
				</g>
				<g id="&lt;Group&gt;">
					<g id="&lt;Group&gt;">
						<path id="&lt;Path&gt;" class="s1" d="m377.9 227.3c0-0.1 2.9 0.9 8.3 0.9 2.7 0.1 5.9-0.4 9.6-1.4 3.6-1.1 7.6-3 11.3-5.9 3.7-3 7.3-7 9.6-12.1 2.3-5.1 3.7-11.1 3-17.4-0.3-3.1-1.1-6.3-2.3-9.3-0.6-1.6-1.4-3-2.2-4.5-0.9-1.4-1.8-2.9-2.9-4.1-4.2-5.4-10.5-9.4-17.5-11.3-7-1.8-14.4-1.3-20.7 1.3-1.6 0.6-3.1 1.4-4.6 2.2-1.4 0.9-2.8 1.8-4.1 2.9-2.5 2-4.8 4.4-6.5 7-3.7 5.1-5.4 11.1-5.9 16.6-0.4 5.6 0.7 10.9 2.5 15.3 1.8 4.4 4.4 7.9 7 10.6 2.7 2.7 5.4 4.7 7.7 6 4.8 2.5 7.8 3.1 7.7 3.2q0 0.1-0.5-0.1-0.7-0.1-1.6-0.4c-0.7-0.2-1.5-0.4-2.5-0.9-0.9-0.4-2.1-0.8-3.2-1.5-2.5-1.2-5.2-3.1-8-5.8-2.7-2.8-5.4-6.4-7.3-10.9-1.8-4.4-3-9.8-2.6-15.5 0.4-5.7 2.2-11.8 5.9-17.1 1.8-2.7 4.1-5.2 6.7-7.3 1.3-1.1 2.8-2 4.2-3 1.5-0.8 3.1-1.6 4.7-2.2 6.5-2.7 14.2-3.2 21.4-1.4 7.2 1.9 13.6 6.1 18 11.6 1.2 1.3 2.1 2.8 3 4.3 0.8 1.5 1.7 3 2.2 4.6 1.3 3.1 2.1 6.4 2.3 9.6 0.7 6.5-0.7 12.7-3.1 17.8-2.4 5.3-6.1 9.4-9.9 12.4-3.9 3-7.9 4.8-11.7 5.8-3.7 1.1-7 1.4-9.7 1.3-1.4 0-2.6-0.1-3.6-0.3-1.1 0-1.9-0.2-2.6-0.4q-1-0.2-1.6-0.4-0.5-0.1-0.5-0.2z" fill="#000000"/>
					</g>
				</g>
			</g>
			<g id="&lt;Group&gt;">
				<g id="&lt;Group&gt;">
					<path id="&lt;Path&gt;" class="s1" d="m381.6 213.1c-10.2-2.7-16.4-13.2-13.7-23.4 2.7-10.2 13.1-16.4 23.3-13.7 10.3 2.6 16.4 13.1 13.8 23.3-2.7 10.3-13.2 16.4-23.4 13.8z" fill="#000000"/>
				</g>
				<g id="&lt;Group&gt;">
					<g id="&lt;Group&gt;">
						<path id="&lt;Path&gt;" class="s1" d="m381.6 213.1c0-0.2 1.7 0.4 4.7 0.4 2.9-0.1 7.5-0.9 11.7-4.2 2.1-1.7 4.1-4 5.4-6.8 1.2-2.9 2-6.2 1.6-9.7-0.1-1.8-0.6-3.5-1.3-5.2-0.7-1.7-1.6-3.4-2.8-4.8-2.4-3-5.9-5.3-9.8-6.3-3.9-1-8-0.7-11.6 0.7-1.7 0.7-3.4 1.7-4.8 2.8-1.4 1.2-2.7 2.5-3.6 4-2.1 2.8-3.1 6.1-3.3 9.2-0.3 3.2 0.3 6.1 1.3 8.6 2.1 5 5.7 7.9 8.2 9.3 2.7 1.5 4.4 1.8 4.3 2 0 0-1.7-0.2-4.5-1.6-2.7-1.4-6.4-4.3-8.7-9.4-1-2.6-1.7-5.6-1.5-8.9 0.2-3.3 1.2-6.8 3.4-9.8 1-1.5 2.3-2.9 3.8-4.1 1.5-1.3 3.2-2.3 5.1-3 3.7-1.6 8-1.9 12.2-0.8 4.1 1.1 7.8 3.5 10.3 6.6 1.2 1.6 2.2 3.3 2.9 5.1 0.8 1.8 1.2 3.6 1.4 5.5 0.3 3.7-0.5 7.2-1.9 10.2-1.4 2.9-3.4 5.3-5.6 7-4.5 3.4-9.2 4.1-12.2 4-3.1-0.2-4.7-0.8-4.7-0.8z" fill="#000000"/>
					</g>
				</g>
			</g>
			<g id="&lt;Group&gt;">
				<g id="&lt;Group&gt;">
					<path id="&lt;Path&gt;" class="s2" d="m424.3 220.9l13.8-24.1c4.1-7.1 13.1-9.5 20.2-5.5l1.3 0.8c7.1 4 9.5 13.1 5.4 20.1l-13.8 24.2c-4.1 7-13.1 9.5-20.2 5.4l-1.3-0.7c-7-4.1-9.5-13.1-5.4-20.2z" fill="#000000"/>
				</g>
				<g id="&lt;Group&gt;">
					<g id="&lt;Group&gt;">
						<path id="&lt;Path&gt;" class="s1" d="m424.3 220.9c0.1 0-1.2 1.8-1.7 5.6-0.2 1.9 0 4.3 0.9 6.8 0.5 1.2 1.2 2.5 2.1 3.7 0.9 1.2 2.1 2.3 3.5 3.2 1.4 0.9 3 1.8 4.7 2.4 1.7 0.6 3.6 0.8 5.5 0.7 3.9-0.3 8-2.3 10.6-5.9 4.6-7.6 9.5-16.4 14.7-25.4 2.5-4.4 2.5-10 0.1-14.1-1.2-2.1-2.9-3.8-4.8-5-2-1.3-4-2.4-6.1-2.8-4.4-0.8-8.7 0.4-11.8 2.8-3.1 2.4-4.5 6.1-6.3 9-3.5 5.8-6.3 10.5-8.3 13.9q-1.4 2.4-2.3 3.8-0.8 1.3-0.8 1.3-0.1 0 0.7-1.4 0.8-1.4 2.1-3.9c1.9-3.4 4.6-8.2 7.9-14.1q1.3-2.2 2.7-4.7c0.9-1.6 2.2-3.2 3.8-4.5 3.2-2.7 7.8-4 12.4-3.1 2.4 0.4 4.5 1.6 6.5 2.8 2.1 1.3 3.9 3.2 5.1 5.4 2.6 4.4 2.7 10.4 0 15.1-5.3 9.1-10.1 17.7-14.8 25.5-2.8 3.8-7.2 5.9-11.3 6.2-2.1 0.1-4.1-0.2-5.9-0.9-1.8-0.6-3.4-1.6-4.8-2.5-1.5-1-2.7-2.2-3.6-3.4-1-1.3-1.6-2.6-2.1-3.9-0.9-2.7-1-5.1-0.8-7 0.3-2 0.9-3.4 1.3-4.3q0.7-1.3 0.8-1.3z" fill="#000000"/>
					</g>
				</g>
			</g>
			<g id="&lt;Group&gt;">
				<path id="&lt;Path&gt;" class="s1" d="m382.9 275.1c0 0 40.6 115.2 56.7 139.7 16.1 24.6 89.4 87.7 100.6 84.4 11.3-3.3 13.2-7 5.1-20.1-8.1-13.1-57.9-59.4-65.3-70.8-7.4-11.5-59.7-147.2-59.7-147.2z" fill="#000000"/>
			</g>
			<g id="&lt;Group&gt;">
				<g id="&lt;Group&gt;">
					<path id="&lt;Path&gt;" class="s2" d="m406 243.7l-26.1 9.7c-7.6 2.9-11.5 11.4-8.6 19l0.5 1.4c2.9 7.7 11.4 11.5 19 8.7l26.1-9.8c7.6-2.8 11.5-11.4 8.6-19l-0.5-1.4c-2.9-7.6-11.4-11.5-19-8.6z" fill="#000000"/>
				</g>
				<g id="&lt;Group&gt;">
					<g id="&lt;Group&gt;">
						<path id="&lt;Path&gt;" class="s1" d="m406 243.7q0-0.1 1.4-0.6c1-0.3 2.5-0.6 4.4-0.6 2 0.1 4.4 0.6 6.8 1.9 1.2 0.7 2.4 1.6 3.5 2.7 1.1 1.2 2.1 2.5 2.8 4.1 0.7 1.6 1.4 3.3 1.7 5.2 0.4 1.9 0.3 3.9-0.1 6-0.9 4-3.7 7.9-7.9 10.1-8.5 3.4-17.8 6.7-27.6 10.5-5.1 1.9-11 0.8-14.9-2.4-2-1.6-3.5-3.7-4.5-6-0.9-2.1-1.7-4.5-1.7-6.8-0.2-4.7 1.9-9.1 5-11.8 1.6-1.4 3.4-2.4 5.2-3.1q2.6-0.9 5-1.8c6.4-2.3 11.5-4.2 15.2-5.5q2.6-1 4.2-1.5 1.5-0.5 1.5-0.4 0 0-1.4 0.6-1.6 0.6-4.1 1.6c-3.7 1.5-8.8 3.4-15.1 5.9-3.2 1.3-7 2.1-9.9 4.8-2.9 2.6-4.8 6.7-4.7 11.1 0.1 2.2 0.8 4.4 1.7 6.5 0.9 2.1 2.4 4.1 4.2 5.6 3.7 3 9.2 4 13.9 2.2 9.8-3.7 19.2-7.1 27.6-10.4 3.9-2 6.6-5.6 7.4-9.4 0.5-1.9 0.5-3.9 0.3-5.7-0.3-1.7-1-3.4-1.7-5-0.6-1.5-1.5-2.8-2.6-3.9-1-1.1-2.1-2-3.3-2.7-2.3-1.3-4.6-1.9-6.5-2-3.8-0.1-5.8 0.9-5.8 0.8z" fill="#000000"/>
					</g>
				</g>
			</g>
		</g>
	</g>
	<g id="Floor">
		<g id="&lt;Group&gt;">
			<g id="&lt;Group&gt;">
				<path id="&lt;Path&gt;" class="s3" d="m1429.5 906.9c0 0.3-304.9 0.6-680.9 0.6-376.1 0-680.9-0.3-680.9-0.6 0-0.2 304.8-0.5 680.9-0.5 376 0 680.9 0.3 680.9 0.5z" fill="#000000"/>
			</g>
		</g>
	</g>
	<g id="Screwdriver">
		<g id="&lt;Group&gt;">
			<g id="&lt;Group&gt;">
				<g id="&lt;Group&gt;">
					<path id="&lt;Path&gt;" class="s1" d="m174 678.1c0.6-1.6 62.9-205.4 62.9-205.4l-1.6-25.3 16.3-26.8 20.3 6.7-2.8 30.1-14.4 21.9-62.7 204.6z" fill="#000000"/>
				</g>
				<g id="&lt;Group&gt;">
					<g id="&lt;Group&gt;">
						<path id="&lt;Path&gt;" class="s3" d="m174 678.1q0 0 1.2 0.4 1.2 0.4 3.5 1.1c3 0.9 7.5 2.3 13.3 4.1l-0.2 0.2c10.1-33.3 33.6-110.1 62.4-204.8l0.1-0.1c4.6-7 9.4-14.4 14.4-21.9l-0.1 0.2c0.9-9.6 1.8-19.7 2.8-30.1l0.3 0.6q-0.8-0.3-1.7-0.6-9.3-3.1-18.5-6.1l0.6-0.2c-5.6 9.1-11 18.1-16.3 26.8l0.1-0.3q0.7 13 1.5 25.3v0.1 0.1c-18.2 59.2-34 110.4-45.2 146.9-5.7 18.3-10.2 32.8-13.3 42.8-1.5 5-2.8 8.9-3.6 11.5q-0.6 2-0.9 3-0.4 1-0.4 1 0 0 0.3-0.9 0.3-1.1 0.9-3c0.8-2.6 1.9-6.5 3.4-11.4 3-10 7.4-24.6 12.9-42.8 11.2-36.6 26.8-88 44.9-147.4v0.2q-0.8-12.4-1.6-25.3v-0.2l0.1-0.1c5.3-8.8 10.8-17.7 16.3-26.9l0.2-0.3 0.4 0.1q9.2 3.1 18.6 6.1 0.8 0.3 1.6 0.6l0.4 0.1v0.4c-0.9 10.3-1.9 20.5-2.8 30.1v0.2l-0.1 0.1c-4.9 7.5-9.8 14.9-14.3 21.8v-0.1c-29.1 94.6-52.8 171.4-63.1 204.6v0.2l-0.2-0.1c-5.8-1.9-10.3-3.4-13.4-4.4q-2.2-0.8-3.3-1.2-1.2-0.4-1.2-0.4z" fill="#000000"/>
					</g>
				</g>
			</g>
			<g id="&lt;Group&gt;">
				<path id="&lt;Path&gt;" class="s4" d="m159 688l-28 37.9-39.1 142c0 0-5.7 28.9 26.3 37.1 35.9 9.3 44.2-18.2 44.2-18.2l38.1-138.7-0.6-48.1 9.4-10.6c1.9-2.1 1-5.5-1.7-6.4l-45-14.8c-2.7-0.9-5.4 1.3-5.1 4.1z" fill="#000000"/>
			</g>
			<g id="&lt;Group&gt;">
				<g id="&lt;Group&gt;">
					<path id="&lt;Path&gt;" class="s3" d="m200.2 701.7c-0.1 0.2-9.5-2.5-21-6.2-11.5-3.6-20.8-6.8-20.7-7.1 0.1-0.3 9.5 2.5 21 6.1 11.5 3.7 20.8 6.9 20.7 7.2z" fill="#000000"/>
				</g>
			</g>
			<g id="&lt;Group&gt;">
				<g id="&lt;Group&gt;">
					<path id="&lt;Path&gt;" class="s3" d="m200.5 748.1c0 0.1-1-0.1-2.8-0.5-1.8-0.4-4.4-1-7.6-1.8-6.3-1.6-15-4-24.5-7-9.6-3.1-18.1-6.1-24.2-8.5-3-1.2-5.5-2.2-7.2-2.9-1.6-0.8-2.6-1.2-2.5-1.3 0 0 1 0.3 2.7 0.9q2.9 1 7.3 2.6c6.1 2.2 14.7 5.2 24.2 8.2 9.5 3 18.1 5.5 24.4 7.3q4.5 1.3 7.5 2.1c1.7 0.5 2.7 0.8 2.7 0.9z" fill="#000000"/>
				</g>
			</g>
			<g id="&lt;Group&gt;" style="opacity: .3">
				<path id="&lt;Path&gt;" class="s5" d="m105.9 871.9l-0.9-0.3c-3.5-1-5.5-4.7-4.5-8.2l35.2-118.7c1-3.5 4.7-5.5 8.2-4.4l0.9 0.2c3.5 1.1 5.5 4.7 4.5 8.2l-35.1 118.7c-1.1 3.5-4.8 5.5-8.3 4.5z" fill="#000000"/>
			</g>
			<g id="&lt;Group&gt;" style="opacity: .3">
				<path id="&lt;Path&gt;" class="s5" d="m125.9 878.5l-1-0.3c-3.5-1.1-5.5-4.7-4.4-8.2l35.1-118.7c1-3.5 4.7-5.5 8.2-4.5l1 0.3c3.5 1 5.5 4.7 4.4 8.2l-35.1 118.7c-1 3.5-4.7 5.5-8.2 4.5z" fill="#000000"/>
			</g>
			<g id="&lt;Group&gt;" style="opacity: .3">
				<path id="&lt;Path&gt;" class="s5" d="m147.1 884.7l-1-0.3c-3.5-1-5.5-4.7-4.4-8.2l35.1-118.6c1-3.5 4.7-5.5 8.2-4.5l1 0.3c3.5 1 5.5 4.7 4.4 8.2l-35.1 118.7c-1.1 3.5-4.7 5.5-8.2 4.4z" fill="#000000"/>
			</g>
			<g id="&lt;Group&gt;">
				<g id="&lt;Group&gt;">
					<path id="&lt;Path&gt;" class="s3" d="m254.5 479.2c-0.1 0.3-4.1-0.9-8.9-2.5-4.8-1.7-8.6-3.3-8.5-3.6 0.1-0.2 4 0.9 8.9 2.6 4.8 1.6 8.6 3.2 8.5 3.5z" fill="#000000"/>
				</g>
			</g>
			<g id="&lt;Group&gt;">
				<g id="&lt;Group&gt;">
					<path id="&lt;Path&gt;" class="s3" d="m271.9 427.3c0 0-0.2 1-0.7 2.8q-0.9 2.9-2.3 7.6c-2.1 6.7-4.9 15.7-8 26l-0.2 0.5-0.5-0.2q-4.5-1.6-9.2-3.2-4.9-1.7-9.5-3.3l-0.5-0.2 0.2-0.5c2.9-10.2 5.4-19.3 7.3-25.9q1.4-4.7 2.2-7.6c0.6-1.8 0.9-2.7 0.9-2.7 0.1 0-0.1 1-0.5 2.8q-0.8 2.9-2 7.7c-1.8 6.6-4.2 15.7-6.9 26l-0.4-0.6q4.6 1.6 9.5 3.3 4.8 1.7 9.2 3.2l-0.6 0.4c3.3-10.3 6.2-19.2 8.4-25.9q1.6-4.6 2.5-7.5c0.7-1.8 1-2.7 1.1-2.7z" fill="#000000"/>
				</g>
			</g>
		</g>
	</g>
	<g id="Gears">
		<g id="&lt;Group&gt;">
			<g id="&lt;Group&gt;">
				<g id="&lt;Group&gt;">
					<g id="&lt;Group&gt;">
						<path id="&lt;Compound Path&gt;" fill-rule="evenodd" class="s1" d="m861.8 223.8c-1.6 0-3.2-0.2-4.7-0.8l-24.5-8.4c-4.9-1.7-8.6-5.9-9.5-11l-4.9-25.5c-1-5.1 0.8-10.3 4.7-13.7l19.6-17c3.9-3.3 9.4-4.4 14.3-2.7l24.5 8.5c4.9 1.7 8.5 5.9 9.5 11l4.9 25.4c0.9 5.1-0.9 10.4-4.8 13.7l-19.6 17c-2.7 2.3-6.1 3.5-9.5 3.5zm-23.2-24.1l22.9 7.9 18.3-15.8-4.6-23.8-22.9-7.9-18.3 15.8z" fill="#000000"/>
					</g>
					<g id="&lt;Group&gt;">
						<g id="&lt;Group&gt;">
							<path id="&lt;Compound Path&gt;" fill-rule="evenodd" class="s6" d="m861.8 223.8c-1.6 0-3.2-0.2-4.7-0.8l-24.5-8.4c-4.9-1.7-8.6-5.9-9.5-11l-4.9-25.5c-1-5.1 0.8-10.3 4.7-13.7l19.6-17c3.9-3.3 9.4-4.4 14.3-2.7l24.5 8.5c4.9 1.7 8.5 5.9 9.5 11l4.9 25.4c0.9 5.1-0.9 10.4-4.8 13.7l-19.6 17c-2.7 2.3-6.1 3.5-9.5 3.5zm-23.2-24.1l22.9 7.9 18.3-15.8-4.6-23.8-22.9-7.9-18.3 15.8z" fill="#000000"/>
						</g>
						<g id="&lt;Group&gt;">
							<g id="&lt;Group&gt;">
								<path id="&lt;Path&gt;" class="s3" d="m838.6 199.7q0 0-0.4-1.6-0.4-1.7-1-4.7c-0.9-4.2-2.1-10.1-3.5-17.4-0.1-0.1 0-0.3 0.1-0.4 5.2-4.5 11.4-9.9 18.2-15.9 0.2-0.1 0.3-0.1 0.5-0.1 7.1 2.5 14.8 5.1 22.9 7.9-0.3-0.3 0.4 0.5 0.3 0.4v0.1h0.1v0.1 0.2l0.1 0.4 0.1 0.8 0.3 1.5q0.3 1.6 0.6 3.1 0.6 3.1 1.2 6.1 1.1 5.9 2.2 11.5c0 0.2-0.1 0.4-0.2 0.5-6.9 5.9-13.1 11.2-18.4 15.7-0.1 0.1-0.2 0.2-0.3 0.1-7-2.5-12.7-4.5-16.8-6q-2.8-1-4.5-1.7-1.5-0.5-1.5-0.6 0.1 0 1.7 0.5 1.7 0.6 4.6 1.5c4.1 1.3 9.7 3.3 16.7 5.6l-0.4 0.1c5.3-4.6 11.4-10 18.3-16l-0.2 0.5q-1.1-5.6-2.2-11.5-0.6-3-1.2-6.1-0.3-1.5-0.6-3.1l-0.3-1.5-0.1-0.8-0.1-0.4-0.1-0.2v-0.1-0.1c-0.1-0.1 0.7 0.8 0.3 0.4-8-2.8-15.7-5.5-22.8-7.9l0.5-0.1c-6.9 5.9-13.2 11.2-18.4 15.7l0.1-0.3c1.3 7.2 2.4 13.1 3.2 17.3q0.5 3 0.8 4.8 0.2 1.7 0.2 1.7z" fill="#000000"/>
							</g>
						</g>
						<g id="&lt;Group&gt;">
							<g id="&lt;Group&gt;">
								<path id="&lt;Path&gt;" class="s3" d="m861.8 223.8c0 0 0.9 0 2.5-0.3 1.6-0.3 3.9-1 6.4-2.9 4.7-4.2 11.5-10.1 19.9-17.4 2-1.8 3.7-4.3 4.4-7.1 0.4-1.5 0.6-3 0.5-4.5-0.1-1.6-0.5-3.1-0.8-4.7-1.3-6.5-2.6-13.4-4-20.6-0.4-1.8-0.6-3.6-1.5-5.3-0.7-1.6-1.8-3.2-3.2-4.4-1.4-1.3-3-2.3-4.8-2.9q-2.8-1-5.7-2-5.7-1.9-11.5-4-3-1-6-2c-1.9-0.8-3.9-1.3-6-1.3-2 0-4.1 0.5-5.9 1.3-1.9 0.9-3.4 2.2-4.9 3.6q-4.7 4.1-9.3 8-4.6 3.9-8.9 7.7c-2.8 2.5-4.4 6.1-4.6 9.7-0.1 1.8 0.3 3.5 0.6 5.3q0.5 2.6 1 5.2 1 5.2 1.9 10c0.6 3.2 1.2 6.4 1.8 9.3 0.8 2.9 2.4 5.4 4.5 7.1q1.5 1.3 3.3 2.2c1.2 0.5 2.4 0.9 3.6 1.3q3.6 1.2 6.7 2.4c4.2 1.4 7.8 2.7 10.7 3.8 3 1 5.2 2 6.8 2.2 1.6 0.3 2.5 0.3 2.5 0.3 0 0-0.9 0.2-2.5-0.1-1.7-0.2-3.9-1.1-6.9-2.1-3-1-6.6-2.2-10.8-3.6q-3.1-1.1-6.7-2.3c-1.2-0.4-2.4-0.8-3.7-1.3q-1.9-0.8-3.5-2.2c-2.2-1.9-4-4.5-4.8-7.5-0.7-3-1.2-6.1-1.9-9.3q-0.9-4.9-1.9-10-0.5-2.6-1-5.2c-0.4-1.8-0.8-3.6-0.7-5.6 0.2-3.8 1.9-7.6 4.9-10.3q4.4-3.8 8.9-7.8 4.6-3.9 9.3-8c0.8-0.7 1.5-1.4 2.4-2q1.3-1 2.8-1.7c1.9-0.9 4.1-1.4 6.3-1.4 2.2-0.1 4.5 0.6 6.4 1.3q3 1 5.9 2.1 5.9 2 11.6 4 2.8 1 5.6 1.9c1.9 0.7 3.7 1.8 5.2 3.1 1.4 1.4 2.6 3 3.4 4.8 0.9 1.8 1.2 3.7 1.5 5.5 1.4 7.3 2.7 14.1 3.9 20.6 0.3 1.6 0.7 3.2 0.8 4.8 0.1 1.6-0.1 3.3-0.5 4.8-0.8 3-2.6 5.6-4.8 7.4-8.4 7.2-15.3 13.1-20.1 17.2-2.5 1.9-5 2.6-6.6 2.8-1.6 0.3-2.5 0.1-2.5 0.1z" fill="#000000"/>
							</g>
						</g>
					</g>
				</g>
			</g>
			<g id="&lt;Group&gt;">
				<g id="&lt;Group&gt;">
					<g id="&lt;Group&gt;">
						<path id="&lt;Compound Path&gt;" fill-rule="evenodd" class="s1" d="m691.3 182.2c-3.1 0-6.2-1.4-8.2-3.9l-7-8.7c-2.3-3-2.9-7-1.6-10.5l4.1-10.4c1.3-3.4 4.5-6 8.2-6.5l11-1.7c3.7-0.6 7.5 0.9 9.8 3.8l7 8.7c2.4 2.9 3 6.9 1.6 10.4l-4 10.4c-1.4 3.5-4.5 6-8.2 6.6l-11.1 1.7q-0.8 0.1-1.6 0.1zm8.1-33.9q-0.2 0-0.4 0.1l-11 1.7c-0.9 0.1-1.6 0.7-2 1.5l-4 10.5c-0.3 0.8-0.2 1.7 0.4 2.5l6.9 8.7c0.6 0.7 1.5 1 2.4 0.9l11-1.7c0.9-0.1 1.7-0.8 2-1.6l4.1-10.4c0.3-0.8 0.1-1.8-0.4-2.5l-7-8.7c-0.5-0.6-1.2-1-2-1z" fill="#000000"/>
					</g>
					<g id="&lt;Group&gt;">
						<g id="&lt;Group&gt;">
							<path id="&lt;Compound Path&gt;" fill-rule="evenodd" class="s6" d="m691.3 182.2c-3.1 0-6.2-1.4-8.2-3.9l-7-8.7c-2.3-3-2.9-7-1.6-10.5l4.1-10.4c1.3-3.4 4.5-6 8.2-6.5l11-1.7c3.7-0.6 7.5 0.9 9.8 3.8l7 8.7c2.4 2.9 3 6.9 1.6 10.4l-4 10.4c-1.4 3.5-4.5 6-8.2 6.6l-11.1 1.7q-0.8 0.1-1.6 0.1zm8.1-33.9q-0.2 0-0.4 0.1l-11 1.7c-0.9 0.1-1.6 0.7-2 1.5l-4 10.5c-0.3 0.8-0.2 1.7 0.4 2.5l6.9 8.7c0.6 0.7 1.5 1 2.4 0.9l11-1.7c0.9-0.1 1.7-0.8 2-1.6l4.1-10.4c0.3-0.8 0.1-1.8-0.4-2.5l-7-8.7c-0.5-0.6-1.2-1-2-1z" fill="#000000"/>
						</g>
						<g id="&lt;Group&gt;">
							<g id="&lt;Group&gt;">
								<path id="&lt;Path&gt;" class="s3" d="m699.4 148.3c0 0 0.3-0.1 0.9 0.1 0.3 0.1 0.6 0.2 0.9 0.5 0.4 0.3 0.6 0.6 1 1 1.4 1.8 3.3 4.1 5.7 6.9q0.4 0.5 0.9 1.1c0.3 0.5 0.5 1 0.5 1.6 0.1 0.6-0.2 1.2-0.4 1.7q-0.2 0.7-0.5 1.5-1.2 3.1-2.5 6.6-0.4 0.8-0.7 1.7c-0.3 0.7-0.8 1.4-1.5 1.7-0.8 0.4-1.4 0.3-2.1 0.5q-0.9 0.1-1.9 0.3c-2.7 0.4-5.4 0.8-8.4 1.2-0.8 0-1.7-0.3-2.3-1q-0.6-0.8-1.3-1.7-1.3-1.6-2.6-3.2-1.2-1.5-2.4-3.1l-0.6-0.7c-0.2-0.3-0.5-0.6-0.6-1-0.3-0.7-0.2-1.5 0.1-2.2q1.3-3.4 2.6-6.5 0.6-1.5 1.1-3c0.2-0.4 0.4-0.9 0.7-1.4 0.3-0.5 0.8-0.8 1.3-1 3.8-0.7 6.8-1 8.9-1.3 2-0.2 3.2-0.4 3.2-0.3 0 0.1-0.3 0.1-0.8 0.2q-1 0.2-2.4 0.5c-2 0.4-5.1 0.9-8.6 1.6-0.4 0.1-0.7 0.4-1 0.7-0.2 0.3-0.3 0.8-0.5 1.3q-0.6 1.5-1.1 3-1.2 3.1-2.6 6.6c-0.1 0.5-0.2 1 0 1.5 0.2 0.4 0.6 0.9 1 1.4q1.3 1.5 2.5 3.1 1.3 1.6 2.6 3.2 0.7 0.8 1.3 1.6c0.4 0.4 1 0.7 1.5 0.7q4.2-0.6 8.2-1.2 1-0.2 2-0.3c0.6-0.2 1.3-0.2 1.8-0.4 0.4-0.2 0.8-0.6 1-1.1q0.3-0.9 0.7-1.8 1.3-3.4 2.6-6.5 0.3-0.8 0.6-1.5c0.2-0.5 0.3-0.9 0.3-1.4 0-0.4-0.1-0.8-0.3-1.2q-0.5-0.5-0.9-1.1c-2.2-2.8-4-5.2-5.4-7-1.1-1.9-2.5-1.8-2.5-1.9z" fill="#000000"/>
							</g>
						</g>
						<g id="&lt;Group&gt;">
							<g id="&lt;Group&gt;">
								<path id="&lt;Path&gt;" class="s3" d="m691.3 182.2q0 0 1.4-0.2 1.4-0.3 3.8-0.7 2.5-0.4 6-1c1.2-0.2 2.5-0.3 3.7-0.9 1.2-0.5 2.4-1.2 3.4-2.3 1-1 1.8-2.3 2.4-3.9q0.8-2.3 1.8-4.7c1.1-3.4 3.3-6.8 2.5-10.6-0.3-1.9-1.2-3.7-2.6-5.2q-1.9-2.5-4-5-1-1.3-2-2.5c-0.7-0.9-1.4-1.7-2.3-2.3-1.7-1.3-3.8-2-6-2-1.1 0-2.2 0.2-3.3 0.4q-1.7 0.2-3.3 0.5-3.3 0.5-6.5 1c-2.1 0.4-3.9 1.5-5.2 2.9q-1.1 1.1-1.7 2.4c-0.4 0.9-0.8 1.9-1.1 2.8q-1.1 2.8-2.2 5.4c-0.6 1.8-1.5 3.4-1.7 5.1-0.6 3.4 0.7 6.6 2.7 8.8q2.8 3.5 5 6.4c0.8 0.9 1.4 1.8 2.1 2.5q1.1 1.1 2.2 1.7c3 1.5 5 1.3 4.9 1.4q0 0-0.3 0.1-0.4 0-1-0.1c-0.9-0.1-2.3-0.3-3.8-1.1-0.7-0.4-1.5-0.9-2.3-1.6-0.8-0.7-1.5-1.7-2.2-2.6q-2.3-2.8-5.2-6.3c-2-2.1-3.6-5.6-3-9.3 0.3-1.9 1.1-3.6 1.8-5.3q1-2.7 2.1-5.4c0.3-1 0.6-1.9 1.1-2.9q0.7-1.4 1.8-2.6c1.5-1.6 3.5-2.8 5.7-3.3 2.2-0.4 4.4-0.7 6.6-1.1q1.7-0.2 3.3-0.5c1.1-0.1 2.3-0.4 3.5-0.4 2.4 0 4.8 0.8 6.7 2.3 0.9 0.6 1.7 1.6 2.4 2.4q1 1.3 2 2.6 2.1 2.5 4 5c1.4 1.5 2.4 3.6 2.7 5.6 0.4 2.1 0.1 4.2-0.6 6q-1 2.6-2 5.1-1 2.4-1.9 4.7c-0.6 1.6-1.5 3-2.6 4.1-2.2 2.3-5.1 3.1-7.5 3.3q-3.5 0.5-6.1 0.8c-1.6 0.3-2.9 0.4-3.8 0.5q-1.4 0.1-1.4 0z" fill="#000000"/>
							</g>
						</g>
					</g>
				</g>
			</g>
			<g id="&lt;Group&gt;">
				<g id="&lt;Group&gt;">
					<path id="&lt;Path&gt;" class="s3" d="m886.2 156.1c0.2 0.2-2 3.2-5.2 6.6-3.1 3.4-6.1 5.7-6.3 5.5-0.2-0.2 2.5-2.8 5.6-6.2 3.1-3.4 5.6-6.1 5.9-5.9z" fill="#000000"/>
				</g>
			</g>
			<g id="&lt;Group&gt;">
				<g id="&lt;Group&gt;">
					<path id="&lt;Path&gt;" class="s3" d="m848.7 144.6c0.2-0.1 1.6 3.2 2.6 7.6 1.1 4.3 1.4 7.9 1.1 7.9-0.3 0.1-1-3.4-2.1-7.7-1-4.3-1.9-7.7-1.6-7.8z" fill="#000000"/>
				</g>
			</g>
			<g id="&lt;Group&gt;">
				<g id="&lt;Group&gt;">
					<path id="&lt;Path&gt;" class="s3" d="m833.8 175.5c-0.2 0.3-3.5-0.9-7.7-2.2-4.2-1.3-7.7-2.2-7.6-2.5 0-0.3 3.6 0.2 7.9 1.5 4.2 1.4 7.5 3 7.4 3.2z" fill="#000000"/>
				</g>
			</g>
			<g id="&lt;Group&gt;">
				<g id="&lt;Group&gt;">
					<path id="&lt;Path&gt;" class="s3" d="m829.5 210.2c-0.2-0.1 1.6-2.7 4.1-5.7 2.5-2.9 4.6-5.2 4.9-5 0.2 0.2-1.6 2.7-4.1 5.7-2.5 3-4.7 5.2-4.9 5z" fill="#000000"/>
				</g>
			</g>
			<g id="&lt;Group&gt;">
				<g id="&lt;Group&gt;">
					<path id="&lt;Path&gt;" class="s3" d="m863.2 221.2c-0.3 0-0.9-2.9-1.4-6.5-0.5-3.6-0.7-6.5-0.4-6.6 0.3 0 0.9 2.9 1.4 6.5 0.5 3.6 0.7 6.5 0.4 6.6z" fill="#000000"/>
				</g>
			</g>
			<g id="&lt;Group&gt;">
				<g id="&lt;Group&gt;">
					<path id="&lt;Path&gt;" class="s3" d="m891.6 195.6c-0.1 0.2-2.7-0.5-5.9-1.8-3.1-1.2-5.6-2.4-5.5-2.6 0.1-0.3 2.8 0.5 5.9 1.7 3.2 1.2 5.6 2.4 5.5 2.7z" fill="#000000"/>
				</g>
			</g>
		</g>
	</g>
	<g id="Character">
		<g id="&lt;Group&gt;">
			<g id="&lt;Group&gt;">
				<g id="&lt;Group&gt;">
					<g id="&lt;Group&gt;">
						<g id="&lt;Group&gt;">
							<g id="&lt;Group&gt;">
								<g id="&lt;Group&gt;">
									<g id="&lt;Group&gt;">
										<g id="&lt;Group&gt;">
											<g id="&lt;Group&gt;">
												<g id="&lt;Group&gt;">
													<g id="&lt;Group&gt;">
														<g id="&lt;Group&gt;">
															<path id="&lt;Path&gt;" class="s3" d="m1288.7 348.9c13.5-16.3 27.1-32.8 37.6-51.2 10.6-18.4 18.1-38.9 18.6-60.1 0-3.3-1.3-25.6-4.4-26.5-2.2-0.6-3.8 19.1-5.6 20.5-17.2 13.5-28.5 33.6-34.9 54.6-6.5 20.9-9.5 40.9-11.3 62.7z" fill="#000000"/>
														</g>
													</g>
												</g>
											</g>
										</g>
									</g>
								</g>
								<g id="&lt;Group&gt;">
									<g id="&lt;Group&gt;">
										<g id="&lt;Group&gt;">
											<g id="&lt;Group&gt;">
												<g id="&lt;Group&gt;">
													<path id="&lt;Path&gt;" class="s7" d="m1112.3 473c5.4-14 32-84 31.9-84 0 0-45.9-23.8-30.1-72.4 7.6-23.5 27.2-70.5 45.4-112.8 19.5-45.6 70.8-68.4 117.7-52.5l4.7 1.5c49.3 20 59.9 73 38.7 121.7l-98 227-85.8-26.5z" fill="#000000"/>
												</g>
											</g>
										</g>
									</g>
								</g>
								<g id="&lt;Group&gt;">
									<g id="&lt;Group&gt;">
										<g id="&lt;Group&gt;">
											<g id="&lt;Group&gt;">
												<g id="&lt;Group&gt;">
													<g id="&lt;Group&gt;">
														<g id="&lt;Group&gt;">
															<g id="&lt;Group&gt;">
																<g id="&lt;Group&gt;">
																	<path id="&lt;Path&gt;" class="s8" d="m1144.2 389c0 0 29.8 12.1 69.2 2.6 0 0-27.2 30.8-74 10.2z" fill="#000000"/>
																</g>
															</g>
														</g>
													</g>
												</g>
											</g>
										</g>
									</g>
								</g>
								<g id="&lt;Group&gt;">
									<g id="&lt;Group&gt;">
										<g id="&lt;Group&gt;">
											<g id="&lt;Group&gt;">
												<g id="&lt;Group&gt;">
													<g id="&lt;Group&gt;">
														<g id="&lt;Group&gt;">
															<g id="&lt;Group&gt;">
																<g id="&lt;Group&gt;">
																	<g id="&lt;Group&gt;">
																		<g id="&lt;Group&gt;">
																			<g id="&lt;Group&gt;">
																				<g id="&lt;Group&gt;">
																					<g id="&lt;Group&gt;">
																						<g id="&lt;Group&gt;">
																							<path id="&lt;Path&gt;" class="s3" d="m1159.5 250.5c-1.4 3.6 0.5 7.7 4.3 9.2 3.7 1.5 7.8-0.2 9.2-3.8 1.3-3.6-0.6-7.8-4.3-9.3-3.8-1.5-7.9 0.3-9.2 3.9z" fill="#000000"/>
																						</g>
																					</g>
																				</g>
																			</g>
																		</g>
																	</g>
																</g>
															</g>
														</g>
													</g>
												</g>
											</g>
										</g>
									</g>
								</g>
								<g id="&lt;Group&gt;">
									<g id="&lt;Group&gt;">
										<g id="&lt;Group&gt;">
											<g id="&lt;Group&gt;">
												<g id="&lt;Group&gt;">
													<g id="&lt;Group&gt;">
														<g id="&lt;Group&gt;">
															<g id="&lt;Group&gt;">
																<g id="&lt;Group&gt;">
																	<g id="&lt;Group&gt;">
																		<g id="&lt;Group&gt;">
																			<g id="&lt;Group&gt;">
																				<g id="&lt;Group&gt;">
																					<g id="&lt;Group&gt;">
																						<g id="&lt;Group&gt;">
																							<g id="&lt;Group&gt;">
																								<path id="&lt;Path&gt;" class="s3" d="m1163 227.3c0.6 1.2 7.1-0.9 14.5 1.6 7.5 2.5 11.7 8.1 12.8 7.5 0.5-0.3 0.2-2.2-1.6-4.7-1.8-2.5-5.2-5.6-9.8-7.1-4.7-1.5-9.1-1.2-12-0.2-2.8 1-4.2 2.4-3.9 2.9z" fill="#000000"/>
																							</g>
																						</g>
																					</g>
																				</g>
																			</g>
																		</g>
																	</g>
																</g>
															</g>
														</g>
													</g>
												</g>
											</g>
										</g>
									</g>
								</g>
								<g id="&lt;Group&gt;">
									<g id="&lt;Group&gt;">
										<g id="&lt;Group&gt;">
											<g id="&lt;Group&gt;">
												<g id="&lt;Group&gt;">
													<g id="&lt;Group&gt;">
														<g id="&lt;Group&gt;">
															<g id="&lt;Group&gt;">
																<g id="&lt;Group&gt;">
																	<g id="&lt;Group&gt;">
																		<g id="&lt;Group&gt;">
																			<g id="&lt;Group&gt;">
																				<g id="&lt;Group&gt;">
																					<g id="&lt;Group&gt;">
																						<g id="&lt;Group&gt;">
																							<path id="&lt;Path&gt;" class="s3" d="m1224.6 276.7c-1.3 3.6 0.6 7.7 4.3 9.2 3.8 1.5 7.9-0.2 9.3-3.8 1.3-3.6-0.6-7.8-4.3-9.3-3.8-1.4-7.9 0.3-9.3 3.9z" fill="#000000"/>
																						</g>
																					</g>
																				</g>
																			</g>
																		</g>
																	</g>
																</g>
															</g>
														</g>
													</g>
												</g>
											</g>
										</g>
									</g>
								</g>
								<g id="&lt;Group&gt;">
									<g id="&lt;Group&gt;">
										<g id="&lt;Group&gt;">
											<g id="&lt;Group&gt;">
												<g id="&lt;Group&gt;">
													<g id="&lt;Group&gt;">
														<g id="&lt;Group&gt;">
															<g id="&lt;Group&gt;">
																<g id="&lt;Group&gt;">
																	<g id="&lt;Group&gt;">
																		<g id="&lt;Group&gt;">
																			<g id="&lt;Group&gt;">
																				<g id="&lt;Group&gt;">
																					<g id="&lt;Group&gt;">
																						<g id="&lt;Group&gt;">
																							<g id="&lt;Group&gt;">
																								<path id="&lt;Path&gt;" class="s3" d="m1234.8 254.9c0.5 1.2 7.1-0.9 14.5 1.6 7.5 2.4 11.6 8.1 12.7 7.5 0.6-0.3 0.3-2.2-1.5-4.7-1.8-2.6-5.2-5.6-9.9-7.1-4.6-1.6-9.1-1.2-11.9-0.2-2.9 1-4.2 2.4-3.9 2.9z" fill="#000000"/>
																							</g>
																						</g>
																					</g>
																				</g>
																			</g>
																		</g>
																	</g>
																</g>
															</g>
														</g>
													</g>
												</g>
											</g>
										</g>
									</g>
								</g>
								<g id="&lt;Group&gt;">
									<g id="&lt;Group&gt;">
										<g id="&lt;Group&gt;">
											<g id="&lt;Group&gt;">
												<g id="&lt;Group&gt;">
													<g id="&lt;Group&gt;">
														<g id="&lt;Group&gt;">
															<g id="&lt;Group&gt;">
																<g id="&lt;Group&gt;">
																	<g id="&lt;Group&gt;">
																		<g id="&lt;Group&gt;">
																			<g id="&lt;Group&gt;">
																				<g id="&lt;Group&gt;">
																					<g id="&lt;Group&gt;">
																						<g id="&lt;Group&gt;">
																							<path id="&lt;Path&gt;" class="s3" d="m1188.9 303c0.1-0.4-4.2-2.8-11.4-6.2-1.8-0.9-3.5-1.9-3.4-3.3 0.1-1.5 1.5-3.3 3.2-5.2q5-5.9 10.5-12.5c14.7-18 26.1-33 25.4-33.6-0.8-0.5-13.3 13.5-28 31.5q-5.4 6.6-10.3 12.7c-1.5 1.9-3.5 3.9-3.5 7.1 0 1.6 1.1 3.1 2.2 3.8 1.1 0.8 2.1 1.2 3 1.6 7.4 2.9 12.1 4.5 12.3 4.1z" fill="#000000"/>
																						</g>
																					</g>
																				</g>
																			</g>
																		</g>
																	</g>
																</g>
															</g>
														</g>
													</g>
												</g>
											</g>
										</g>
									</g>
								</g>
								<g id="&lt;Group&gt;">
									<g id="&lt;Group&gt;">
										<g id="&lt;Group&gt;">
											<g id="&lt;Group&gt;">
												<g id="&lt;Group&gt;">
													<g id="&lt;Group&gt;">
														<g id="&lt;Group&gt;">
															<g id="&lt;Group&gt;">
																<g id="&lt;Group&gt;">
																	<g id="&lt;Group&gt;">
																		<g id="&lt;Group&gt;">
																			<g id="&lt;Group&gt;">
																				<g id="&lt;Group&gt;">
																					<g id="&lt;Group&gt;">
																						<g id="&lt;Group&gt;">
																							<path id="&lt;Path&gt;" class="s3" d="m1209 315.5c-1.2-0.4-3.9 7.6-12.8 11-8.8 3.4-17.1-0.4-17.5 0.7-0.3 0.5 1.4 2.2 4.9 3.6 3.6 1.3 9.1 1.9 14.6-0.2 5.4-2.1 8.7-6.1 10.1-9.4 1.5-3.2 1.3-5.5 0.7-5.7z" fill="#000000"/>
																						</g>
																					</g>
																				</g>
																			</g>
																		</g>
																	</g>
																</g>
															</g>
														</g>
													</g>
												</g>
											</g>
										</g>
									</g>
								</g>
								<g id="&lt;Group&gt;">
									<g id="&lt;Group&gt;">
										<g id="&lt;Group&gt;">
											<g id="&lt;Group&gt;">
												<g id="&lt;Group&gt;">
													<g id="&lt;Group&gt;">
														<g id="&lt;Group&gt;">
															<g id="&lt;Group&gt;">
																<g id="&lt;Group&gt;">
																	<g id="&lt;Group&gt;">
																		<g id="&lt;Group&gt;">
																			<path id="&lt;Path&gt;" class="s3" d="m1245.4 224.9c0 2.3 7.8 3.8 16.1 7.8 8.5 3.8 14.7 8.8 16.4 7.3 0.8-0.7 0.2-3-1.9-5.9-2.2-2.9-6.1-6.3-11.1-8.6-5-2.4-10.1-3.1-13.7-2.9-3.7 0.2-5.8 1.2-5.8 2.3z" fill="#000000"/>
																		</g>
																	</g>
																</g>
															</g>
														</g>
													</g>
												</g>
											</g>
										</g>
									</g>
								</g>
								<g id="&lt;Group&gt;">
									<g id="&lt;Group&gt;">
										<g id="&lt;Group&gt;">
											<g id="&lt;Group&gt;">
												<g id="&lt;Group&gt;">
													<g id="&lt;Group&gt;">
														<g id="&lt;Group&gt;">
															<g id="&lt;Group&gt;">
																<g id="&lt;Group&gt;">
																	<g id="&lt;Group&gt;">
																		<g id="&lt;Group&gt;">
																			<path id="&lt;Path&gt;" class="s3" d="m1174.4 203.7c0.8 2.1 6.5 2.1 12.7 4.1 6.2 1.7 11 4.9 12.7 3.6 0.9-0.7 0.6-2.7-1.1-5-1.7-2.4-5-5-9.3-6.3-4.3-1.2-8.5-1-11.2 0-2.8 1-4.1 2.5-3.8 3.6z" fill="#000000"/>
																		</g>
																	</g>
																</g>
															</g>
														</g>
													</g>
												</g>
											</g>
										</g>
									</g>
								</g>
								<g id="&lt;Group&gt;">
									<g id="&lt;Group&gt;">
										<g id="&lt;Group&gt;">
											<g id="&lt;Group&gt;">
												<g id="&lt;Group&gt;">
													<g id="&lt;Group&gt;">
														<g id="&lt;Group&gt;">
															<path id="&lt;Path&gt;" class="s7" d="m1304.5 309c1-0.1 36.6 1.4 24.4 34.1-12.3 32.7-42.6 13.7-42.3 12.7 0.3-0.9 17.9-46.8 17.9-46.8z" fill="#000000"/>
														</g>
													</g>
												</g>
											</g>
										</g>
									</g>
								</g>
								<g id="&lt;Group&gt;">
									<g id="&lt;Group&gt;">
										<g id="&lt;Group&gt;">
											<g id="&lt;Group&gt;">
												<g id="&lt;Group&gt;">
													<g id="&lt;Group&gt;">
														<g id="&lt;Group&gt;">
															<g id="&lt;Group&gt;">
																<path id="&lt;Path&gt;" class="s8" d="m1301.2 347.2c0.2-0.1 0.5 0.6 1.3 1.4 0.7 0.8 2.2 1.7 4.2 1.7 3.9 0 8.9-4.4 11.2-10.3 1.2-2.9 1.7-6 1.5-8.7-0.1-2.8-1-5-2.7-6-1.6-1-3.2-0.4-3.9 0.3-0.8 0.8-0.8 1.5-1 1.5-0.2 0-0.5-0.8 0.2-2.1 0.4-0.6 1.1-1.2 2.1-1.5 1-0.4 2.3-0.3 3.5 0.3 2.4 1.1 3.8 4.3 4 7.3 0.3 3.1-0.1 6.5-1.4 9.9-2.7 6.5-8.4 11.4-13.6 11-2.5-0.3-4.2-1.7-4.9-2.8-0.7-1.2-0.6-2-0.5-2z" fill="#000000"/>
															</g>
														</g>
													</g>
												</g>
											</g>
										</g>
									</g>
								</g>
								<g id="&lt;Group&gt;">
									<g id="&lt;Group&gt;">
										<g id="&lt;Group&gt;">
											<g id="&lt;Group&gt;">
												<g id="&lt;Group&gt;">
													<g id="&lt;Group&gt;">
														<g id="&lt;Group&gt;">
															<path id="&lt;Path&gt;" class="s3" d="m1201.3 157.9c-4.2-5 18.2-16 33.4-16.9 23-1.3 55 4.7 71.1 16.7 19.4 14.5 33.3 32.3 36.6 56.3 3.4 23.9-1.4 48.6-10.7 70.9-2.8 6.8-6.3 13.8-12.2 18.2-7.3 5.4-17.8 6.6-21.2 16.7-1.3 3.7-3.7 7-7.2 8.7-8.4 4-13.4-4.7-14.5-12-2.3-15.5 2.8-31.1 7.8-45.9 3.5-10.6 7.2-21.4 13.9-30.2 3.7-4.9 8.2-9 11.6-14 3.4-5 5.7-11.4 4-17.2-0.3-0.9-0.9-2.2-1.7-3.7-6.1-11.6-18.1-19-31.2-19.3-20.9-0.6-55.9-2.9-61.7-12.3-8.3-13.5-8.9-20.4-8.9-20.4z" fill="#000000"/>
														</g>
													</g>
												</g>
											</g>
										</g>
									</g>
								</g>
							</g>
						</g>
					</g>
				</g>
			</g>
			<g id="&lt;Group&gt;">
				<g id="&lt;Group&gt;">
					<g id="&lt;Group&gt;">
						<g id="&lt;Group&gt;">
							<path id="&lt;Path&gt;" class="s4" d="m1310.1 137.8c2.1 1 51.2 31.4 50.9 75.7-0.3 44.2-8.4 55.1-8.4 55.1 0 0 2.4 2.9 3.9 6.7 1.3 3.3-6.2 14.7-12.7 10.9-44.1-40.9-104.9-64.4-174.3-85.9l-52.3-18.7c-15.3-3.4-19.2-9.1-11.7-10.6 5.8-1.2 53.3-3.6 53.3-3.6l10.2-3.2 32.1-22.6c0 0-1.2-5.1 5.3-6.8 6.5-1.6 62.3-18 103.7 3z" fill="#000000"/>
						</g>
					</g>
				</g>
			</g>
			<g id="&lt;Group&gt;">
				<g id="&lt;Group&gt;">
					<g id="&lt;Group&gt;">
						<g id="&lt;Group&gt;">
							<g id="&lt;Group&gt;">
								<path id="&lt;Path&gt;" class="s3" d="m1169 164.2c0 0 0.7 0.3 2.1 0.8 1.6 0.5 3.5 1.1 5.9 1.8 5.2 1.6 12.5 4.2 21.5 7.5 18 6.9 42.4 17.8 67.5 33 25.3 15 46.8 30.8 62.1 42.5 7.7 5.8 13.8 10.6 18 13.9q2.9 2.3 4.9 3.9c1.1 0.8 1.8 1.2 1.8 1.2 0 0-0.6-0.5-1.7-1.4-1.3-1.1-2.9-2.4-4.8-3.9-4.1-3.4-10.2-8.4-17.8-14.2-15.2-11.8-36.7-27.8-62-42.8-25.2-15.3-49.7-26.1-67.7-32.8-18.2-6.6-29.8-9.5-29.8-9.5z" fill="#000000"/>
							</g>
						</g>
					</g>
				</g>
			</g>
			<g id="&lt;Group&gt;" style="opacity: .3">
				<g id="&lt;Group&gt;">
					<g id="&lt;Group&gt;">
						<g id="&lt;Group&gt;">
							<g id="&lt;Group&gt;">
								<path id="&lt;Path&gt;" class="s5" d="m1350.7 177.9c0 0-54.3-29-84.2-25.5q1.7-0.3 3.5-0.5-14 1.2-28 2.3c-4.7 0.4-10.1 0.6-13.4-2.9 0 0 17-7.2 43.8-7 26.8 0.1 66.2 9.7 78.3 33.6z" fill="#000000"/>
							</g>
						</g>
					</g>
				</g>
			</g>
			<g id="&lt;Group&gt;">
				<g id="&lt;Group&gt;">
					<g id="&lt;Group&gt;">
						<g id="&lt;Group&gt;">
							<g id="&lt;Group&gt;">
								<path id="&lt;Path&gt;" class="s3" d="m1351.4 178.5c0 0-1.2-2-4-5.2-2.7-3.1-7-7.5-13.1-11.8-6.1-4.4-14-8.8-23.4-12-9.4-3.3-20.3-5.6-31.8-4.4-5.8 0.4-11.2 1.6-16.5 2.7-5.3 1.2-10.4 2.1-15.2 3.4-4.7 1.3-9.2 2.8-13.5 3.2-4.4 0.6-8.4-0.4-11.9-1.6-14.2-4.6-21.9-10.5-20.9-11.2 0 0 0 0.7 0.7 1.5 0.8 0.8 2.1 1.9 3.9 3 3.5 2.2 9 4.9 16.1 7.4 3.5 1.2 7.7 2.3 12.1 1.7 4.5-0.4 9-1.9 13.8-3.2 4.7-1.3 9.8-2.2 15.1-3.3 5.2-1.1 10.7-2.2 16.3-2.7 11.4-1.1 22.2 1.1 31.5 4.3 9.3 3.1 17.2 7.4 23.3 11.7 6.1 4.3 10.4 8.5 13.2 11.6 1.5 1.5 2.5 2.8 3.2 3.6 0.7 0.9 1.1 1.3 1.1 1.3z" fill="#000000"/>
							</g>
						</g>
					</g>
				</g>
			</g>
			<g id="&lt;Group&gt;" style="opacity: .3">
				<g id="&lt;Group&gt;">
					<g id="&lt;Group&gt;">
						<g id="&lt;Group&gt;">
							<g id="&lt;Group&gt;">
								<path id="&lt;Path&gt;" class="s5" d="m1360.3 231.8c-10.3-3.7-17.2-9-26.6-14.8-10.1-6.1-20.3-11.7-30-18.3-7.4-5-16.4-10.3-19.7-18-2.3 4-2.3 8.3-0.2 12.4 2.1 4.1 11 11.1 14.8 13.7 21.6 14.7 36.6 24.7 60.8 35 0.7-2.7 0.9-10 0.9-10z" fill="#000000"/>
							</g>
						</g>
					</g>
				</g>
			</g>
			<g id="&lt;Group&gt;">
				<g id="&lt;Group&gt;">
					<g id="&lt;Group&gt;">
						<g id="&lt;Group&gt;">
							<path id="&lt;Path&gt;" class="s4" d="m1360.8 208.6c5.6 5 8.9 8.3 7.2 13.9-1.4 4.7-4.3 10-9.2 9.3-1.4-0.2-2.8-1-4.1-1.8q-33-19.3-66.1-38.7c-2.2-1.3-4.6-2.8-5.5-5.3-1.3-3.7 2-7.9 5.8-8.9 3.9-1 7.9 0.1 11.7 1.3 21.6 7 41.3 17.7 60.2 30.2z" fill="#000000"/>
						</g>
					</g>
				</g>
			</g>
			<g id="&lt;Group&gt;">
				<g id="&lt;Group&gt;">
					<g id="&lt;Group&gt;">
						<g id="&lt;Group&gt;">
							<g id="&lt;Group&gt;">
								<path id="&lt;Path&gt;" class="s3" d="m1283.8 187.4c0.2 0-0.9-1.2-0.8-3.7 0.1-2.4 1.8-6.3 6-8 4.2-1.4 9.9-0.5 15.4 1.8 5.6 2.2 11.7 4.8 18.1 7.7 12.7 5.7 23.6 12 31.1 17.2 3.8 2.6 6.7 4.9 8.7 6.5q1.2 1 2.3 1.8 0.8 0.7 0.8 0.6 0 0-0.7-0.7-1-0.9-2.2-2c-1.9-1.7-4.8-4-8.5-6.7-7.4-5.4-18.4-11.8-31.2-17.6-6.3-2.9-12.5-5.4-18.1-7.6-5.6-2.2-11.4-3.2-15.9-1.6-4.5 1.9-6.2 6.1-6.2 8.6 0 1.3 0.4 2.3 0.7 2.9 0.3 0.6 0.5 0.9 0.5 0.8z" fill="#000000"/>
							</g>
						</g>
					</g>
				</g>
			</g>
			<g id="&lt;Group&gt;">
				<g id="&lt;Group&gt;">
					<g id="&lt;Group&gt;">
						<g id="&lt;Group&gt;">
							<path id="&lt;Path&gt;" class="s9" d="m1191 148.7l45.1 14.4-8.1 11.3-48.3-17.7z" fill="#000000"/>
						</g>
					</g>
				</g>
			</g>
			<g id="&lt;Group&gt;">
				<g id="&lt;Group&gt;">
					<g id="&lt;Group&gt;">
						<g id="&lt;Group&gt;">
							<g id="&lt;Group&gt;">
								<path id="&lt;Path&gt;" class="s3" d="m1245 211.6c0.1-0.2-18.8-9.9-42.3-21.6-23.5-11.8-42.6-21.1-42.8-20.8-0.1 0.2 18.9 9.9 42.4 21.6 23.5 11.7 42.6 21 42.7 20.8z" fill="#000000"/>
							</g>
						</g>
					</g>
				</g>
			</g>
		</g>
		<g id="&lt;Group&gt;">
			<g id="&lt;Group&gt;">
				<g id="&lt;Group&gt;">
					<g id="&lt;Group&gt;">
						<g id="&lt;Group&gt;">
							<path id="&lt;Path&gt;" class="s4" d="m1256.4 454.3l0.6-29.6-101.2 37.6c0 0-18.7-60.8-18.7-63.6l-22.4 14.1-37.3-16.1-37.2-18.4-75.4 131.9-79 233.2 186.3 124.2 138.1-148 84-128 46.1-81z" fill="#000000"/>
						</g>
					</g>
				</g>
			</g>
			<g id="&lt;Group&gt;">
				<g id="&lt;Group&gt;">
					<path id="&lt;Path&gt;" class="s3" d="m1146.8 461.8c0 0-0.1-1-0.1-2.9q-0.1-3.1-0.1-8.3l0.4 0.3c-7.7 3.7-19.4 10.5-30.4 20.8l-0.8 0.8-0.1-1.1c-0.1-1.3-0.2-2.7-0.2-4.1-0.9-14.5-1.5-27.7-2-37.2-0.2-4.6-0.3-8.4-0.4-11.2q-0.1-1.9-0.1-3.1 0-1.1 0-1.1 0.1 0 0.2 1.1 0.1 1.2 0.3 3c0.2 2.9 0.4 6.7 0.8 11.3 0.6 9.5 1.4 22.6 2.2 37.1 0.1 1.4 0.2 2.8 0.2 4.1l-0.8-0.3c11.2-10.4 23-17.1 30.8-20.7l0.5-0.2v0.5q-0.1 5.2-0.2 8.3c-0.1 1.9-0.1 2.9-0.2 2.9z" fill="#000000"/>
				</g>
			</g>
			<g id="&lt;Group&gt;">
				<g id="&lt;Group&gt;">
					<path id="&lt;Path&gt;" class="s3" d="m1247.1 455.7q0 0-1.2 0.6-1.3 0.6-3.4 1.6c-3.1 1.4-7.3 3.4-12.5 5.8-10.7 4.8-25.4 11.3-41.5 18.5-7 3.1-13.6 6-19.8 8.7l-0.8 0.4 0.2-0.9c1.9-11.3 2.3-21.2 2.3-28.5l0.4 0.3c-3.9 1.9-7 3.4-9.3 4.6q-1.5 0.7-2.5 1.1-0.9 0.4-0.9 0.4 0-0.1 0.8-0.5 1-0.6 2.4-1.4c2.3-1.1 5.4-2.7 9.2-4.8l0.5-0.2v0.5c0.2 7.3-0.1 17.3-2 28.7l-0.7-0.6c6.2-2.7 12.8-5.7 19.7-8.7 16.2-7.1 30.9-13.6 41.7-18.3 5.2-2.3 9.5-4.1 12.7-5.5q2.1-0.8 3.4-1.4 1.2-0.5 1.3-0.4z" fill="#000000"/>
				</g>
			</g>
		</g>
		<g id="&lt;Group&gt;">
			<g id="&lt;Group&gt;">
				<g id="&lt;Group&gt;">
					<g id="&lt;Group&gt;">
						<g id="&lt;Group&gt;">
							<g id="&lt;Group&gt;">
								<g id="&lt;Group&gt;">
									<g id="&lt;Group&gt;">
										<g id="&lt;Group&gt;">
											<g id="&lt;Group&gt;">
												<g id="&lt;Group&gt;">
													<path id="&lt;Path&gt;" class="s10" d="m1070.2 893.5h-761.8c-16.1 0-29.1-13-29.1-29.1v-527.5c0-16.1 13-29.1 29.1-29.1h761.8c16.1 0 29.1 13 29.1 29.1v527.5c0 16.1-13 29.1-29.1 29.1z" fill="#000000"/>
												</g>
											</g>
										</g>
									</g>
								</g>
								<g id="&lt;Group&gt;">
									<g id="&lt;Group&gt;">
										<g id="&lt;Group&gt;">
											<g id="&lt;Group&gt;">
												<g id="&lt;Group&gt;">
													<path id="&lt;Path&gt;" class="s10" d="m1100.1 906.9h-817.3c-19.7 0-35.6-15.9-35.6-35.6v-15.6h888.5v15.6c0 19.7-15.9 35.6-35.6 35.6z" fill="#000000"/>
												</g>
											</g>
										</g>
									</g>
								</g>
								<g id="&lt;Group&gt;">
									<g id="&lt;Group&gt;">
										<g id="&lt;Group&gt;">
											<g id="&lt;Group&gt;">
												<g id="&lt;Group&gt;">
													<path id="&lt;Path&gt;" class="s3" d="m1075 825.7h-773.7v-494.7h773.7z" fill="#000000"/>
												</g>
											</g>
										</g>
									</g>
								</g>
								<g id="&lt;Group&gt;">
									<g id="&lt;Group&gt;">
										<g id="&lt;Group&gt;">
											<g id="&lt;Group&gt;">
												<g id="&lt;Group&gt;">
													<path id="&lt;Path&gt;" class="s3" d="m608.5 850.2l11 18.9h155.1l10.3-18.9z" fill="#000000"/>
												</g>
											</g>
										</g>
									</g>
								</g>
							</g>
							<g id="&lt;Group&gt;">
								<g id="&lt;Group&gt;">
									<g id="&lt;Group&gt;">
										<g id="&lt;Group&gt;">
											<g id="&lt;Group&gt;">
												<g id="&lt;Group&gt;">
													<g id="&lt;Group&gt;">
														<g id="&lt;Group&gt;">
															<g id="&lt;Group&gt;">
																<path id="&lt;Path&gt;" class="s2" d="m1054.1 824.1h-730.3c-3.7 0-6.6-2.9-6.6-6.5v-463.3c0-3.6 2.9-6.5 6.6-6.5h730.3c3.7 0 6.6 2.9 6.6 6.5v463.3c0 3.6-2.9 6.5-6.6 6.5z" fill="#000000"/>
															</g>
														</g>
													</g>
												</g>
											</g>
										</g>
										<g id="&lt;Group&gt;">
											<g id="&lt;Group&gt;">
												<g id="&lt;Group&gt;">
													<g id="&lt;Group&gt;">
														<g id="&lt;Group&gt;">
															<g id="&lt;Group&gt;">
																<path id="&lt;Path&gt;" class="s11" d="m1059.9 824.8h-743.5l0.8-441.4h742.7z" fill="#000000"/>
															</g>
														</g>
													</g>
												</g>
											</g>
										</g>
										<g id="&lt;Group&gt;">
											<g id="&lt;Group&gt;">
												<g id="&lt;Group&gt;">
													<g id="&lt;Group&gt;">
														<g id="&lt;Group&gt;">
															<g id="&lt;Group&gt;">
																<path id="&lt;Path&gt;" class="s3" d="m379.7 366.2c0 3.5-2.8 6.4-6.1 6.4-3.4 0-6.2-2.9-6.2-6.4 0-3.6 2.8-6.4 6.2-6.4 3.3 0 6.1 2.8 6.1 6.4z" fill="#000000"/>
															</g>
														</g>
													</g>
												</g>
											</g>
										</g>
										<g id="&lt;Group&gt;">
											<g id="&lt;Group&gt;">
												<g id="&lt;Group&gt;">
													<g id="&lt;Group&gt;">
														<g id="&lt;Group&gt;">
															<g id="&lt;Group&gt;">
																<path id="&lt;Path&gt;" class="s3" d="m342.6 366.2c0 3.5-2.8 6.4-6.2 6.4-3.3 0-6.1-2.9-6.1-6.4 0-3.6 2.8-6.4 6.1-6.4 3.4 0 6.2 2.8 6.2 6.4z" fill="#000000"/>
															</g>
														</g>
													</g>
												</g>
											</g>
										</g>
										<g id="&lt;Group&gt;">
											<g id="&lt;Group&gt;">
												<g id="&lt;Group&gt;">
													<g id="&lt;Group&gt;">
														<g id="&lt;Group&gt;">
															<g id="&lt;Group&gt;">
																<path id="&lt;Path&gt;" class="s3" d="m361.6 366.2c0 3.5-2.7 6.4-6.1 6.4-3.4 0-6.1-2.9-6.1-6.4 0-3.6 2.7-6.4 6.1-6.4 3.4 0 6.1 2.8 6.1 6.4z" fill="#000000"/>
															</g>
														</g>
													</g>
												</g>
											</g>
										</g>
									</g>
								</g>
							</g>
							<g id="&lt;Group&gt;">
								<g id="&lt;Group&gt;">
									<g id="&lt;Group&gt;">
										<g id="&lt;Group&gt;">
											<g id="&lt;Group&gt;">
												<path id="&lt;Path&gt;" class="s3" d="m1092.3 850.2c0 0.3-182 0.6-406.5 0.6-224.6 0-406.5-0.3-406.5-0.6 0-0.3 181.9-0.6 406.5-0.6 224.5 0 406.5 0.3 406.5 0.6z" fill="#000000"/>
											</g>
										</g>
									</g>
								</g>
							</g>
						</g>
					</g>
				</g>
			</g>
			<g id="&lt;Group&gt;">
				<g id="&lt;Group&gt;">
					<g id="&lt;Group&gt;">
						<g id="&lt;Group&gt;">
							<g id="&lt;Group&gt;">
								<path id="&lt;Compound Path&gt;" fill-rule="evenodd" class="s1" d="m609.1 468.1c12.2-7.4 25.2-13 38.7-16.8l7.9-38.3 64.7-1.2 9.3 38c13.6 3.3 26.8 8.5 39.3 15.4l32.7-21.4 46.5 45-20.2 33.4c7.3 12.2 13 25.2 16.8 38.7l38.2 7.9 1.2 64.7-38 9.3c-3.3 13.6-8.5 26.8-15.4 39.3l21.4 32.7-44.9 46.5-33.5-20.2c-12.2 7.3-25.2 13-38.7 16.8l-7.9 38.3-64.7 1.1-9.3-38c-13.6-3.3-26.8-8.5-39.3-15.4l-32.7 21.4-46.5-44.9 20.3-33.5c-7.4-12.2-13-25.2-16.9-38.7l-38.2-7.9-1.2-64.7 38-9.3c3.3-13.6 8.5-26.8 15.4-39.3l-21.4-32.7 45-46.5zm34.4 86.2c-26.6 27.5-25.8 71.5 1.8 98.1 27.5 26.6 71.5 25.9 98.1-1.7 26.6-27.6 25.9-71.5-1.7-98.2-27.6-26.6-71.5-25.8-98.2 1.8z" fill="#000000"/>
							</g>
						</g>
					</g>
				</g>
			</g>
			<g id="&lt;Group&gt;">
				<g id="&lt;Group&gt;">
					<g id="&lt;Group&gt;">
						<g id="&lt;Group&gt;">
							<g id="&lt;Group&gt;">
								<path id="&lt;Compound Path&gt;" fill-rule="evenodd" class="s1" d="m867.5 492.7c0.9-4.8 2.4-9.4 4.5-13.8l-8-10.8 14.4-16.9 12 6.2c3.9-2.7 8.3-4.9 12.9-6.5l2-13.4 22.2-1.7 4 12.8c4.8 0.9 9.5 2.5 13.8 4.6l10.8-8.1 17 14.5-6.3 11.9c2.7 4 5 8.3 6.6 13l13.3 1.9 1.8 22.3-12.9 3.9c-0.9 4.9-2.4 9.5-4.5 13.9l8 10.8-14.4 16.9-12-6.3c-3.9 2.8-8.3 5-12.9 6.6l-2 13.4-22.2 1.7-4-12.9c-4.8-0.8-9.5-2.4-13.8-4.5l-10.8 8.1-17-14.5 6.3-11.9c-2.7-4-5-8.3-6.6-13l-13.3-1.9-1.8-22.3zm30.2 6.8c-1.4 15.9 12.5 28.4 28 25.7 10.5-1.8 18.7-10.7 19.6-21.3 1.4-16-12.5-28.5-28-25.8-10.5 1.8-18.7 10.7-19.6 21.4z" fill="#000000"/>
							</g>
						</g>
					</g>
				</g>
			</g>
			<g id="&lt;Group&gt;">
				<g id="&lt;Group&gt;">
					<g id="&lt;Group&gt;">
						<g id="&lt;Group&gt;">
							<g id="&lt;Group&gt;">
								<path id="&lt;Compound Path&gt;" fill-rule="evenodd" class="s1" d="m380.4 716.1c0.2-5.9 1.2-11.5 2.8-17l-11.3-11.2 13.9-22.3 15 5.2c4.1-3.9 8.8-7.3 13.9-10l-0.1-15.9 25.7-6 6.9 14.2c5.8 0.2 11.5 1.2 16.9 2.8l11.2-11.3 22.4 13.9-5.2 15c3.9 4.2 7.3 8.8 10 14l15.9-0.2 6 25.7-14.3 6.9c-0.2 5.8-1.1 11.5-2.8 17l11.4 11.1-13.9 22.4-15.1-5.2c-4.1 3.9-8.8 7.3-13.9 10l0.1 15.9-25.6 6-7-14.3c-5.8-0.1-11.5-1.1-16.9-2.8l-11.2 11.4-22.3-13.9 5.2-15c-3.9-4.2-7.3-8.8-10.1-14l-15.9 0.1-6-25.6zm37.1 7.2c3.6 15.2 18.8 24.6 33.9 21.1 15.2-3.6 24.6-18.8 21.1-34-3.6-15.1-18.8-24.6-33.9-21-15.2 3.5-24.7 18.7-21.1 33.9z" fill="#000000"/>
							</g>
						</g>
					</g>
				</g>
			</g>
			<g id="&lt;Group&gt;">
				<g id="&lt;Group&gt;">
					<g id="&lt;Group&gt;">
						<g id="&lt;Group&gt;">
							<g id="&lt;Group&gt;">
								<path id="&lt;Compound Path&gt;" fill-rule="evenodd" class="s2" d="m426.5 502.4c0.6-3.7 1.8-7.2 3.4-10.5l-6.1-8.1 10.9-12.8 9 4.7c3-2 6.3-3.7 9.8-4.9l1.4-10.1 16.8-1.3 3 9.7c3.7 0.7 7.2 1.8 10.4 3.4l8.2-6.1 12.7 11-4.7 9c2.1 2.9 3.8 6.2 5 9.7l10 1.5 1.4 16.7-9.8 3.1c-0.6 3.6-1.8 7.1-3.3 10.4l6 8.1-10.9 12.8-9-4.7c-3 2-6.3 3.7-9.8 4.9l-1.4 10.1-16.8 1.3-3-9.7c-3.7-0.7-7.1-1.8-10.4-3.4l-8.2 6.1-12.7-10.9 4.7-9c-2.1-3-3.8-6.3-5-9.8l-10-1.5-1.3-16.7zm22.7 8.1c0.7 9.9 9.4 17.4 19.3 16.6 10-0.8 17.4-9.5 16.6-19.4-0.8-9.9-9.4-17.4-19.4-16.6-9.9 0.8-17.3 9.5-16.5 19.4z" fill="#000000"/>
							</g>
						</g>
					</g>
				</g>
			</g>
			<g id="&lt;Group&gt;">
				<g id="&lt;Group&gt;">
					<g id="&lt;Group&gt;">
						<g id="&lt;Group&gt;">
							<g id="&lt;Group&gt;">
								<path id="&lt;Compound Path&gt;" fill-rule="evenodd" class="s2" d="m868.3 682.9c0.6-3.2 1.6-6.2 3-9l-5.3-7 9.4-11 7.8 4.1c2.5-1.8 5.3-3.2 8.3-4.3l1.3-8.6 14.4-1.1 2.6 8.3c3.1 0.6 6.1 1.6 8.9 2.9l7-5.2 11 9.4-4.1 7.7c1.8 2.6 3.3 5.4 4.3 8.4l8.7 1.3 1.1 14.4-8.4 2.5c-0.5 3.2-1.5 6.2-2.9 9l5.2 7-9.3 11-7.8-4.1c-2.5 1.8-5.3 3.2-8.4 4.3l-1.2 8.6-14.4 1.1-2.6-8.3c-3.1-0.6-6.1-1.6-9-2.9l-7 5.2-10.9-9.4 4-7.7c-1.7-2.6-3.2-5.4-4.2-8.4l-8.7-1.3-1.1-14.4zm19.5 7c0.7 8.6 8.1 14.9 16.7 14.3 8.5-0.7 14.9-8.1 14.2-16.7-0.7-8.5-8.1-14.9-16.6-14.2-8.6 0.6-15 8.1-14.3 16.6z" fill="#000000"/>
							</g>
						</g>
					</g>
				</g>
			</g>
			<g id="&lt;Group&gt;">
				<g id="&lt;Group&gt;">
					<path id="&lt;Path&gt;" class="s4" d="m691.5 704.6h-99.6c-25.6 0-41.7-27.9-28.9-50.1l49.8-86.2 49.7-86.2c12.9-22.2 45-22.2 57.9 0l49.7 86.2 49.8 86.2c12.8 22.2-3.2 50.1-28.9 50.1z" fill="#000000"/>
				</g>
				<g id="&lt;Group&gt;">
					<g id="&lt;Group&gt;">
						<path id="&lt;Path&gt;" class="s3" d="m798.6 664.4q0 0 0.7 1.6c0.4 1.1 1.1 2.7 1.1 5 0 2.2-0.5 5-2.4 7.8-0.9 1.4-2.1 2.7-3.7 3.7-1.6 1.1-3.6 1.8-5.7 1.9-17 0.2-41.5 0.2-71.8 0.2-30.3 0.1-66.3 0.1-106.3 0.2q-7.5 0-15.2 0c-5.4 0.1-10.5-3.8-12.3-8.9-0.9-2.6-1.1-5.4-0.5-8.1q0.3-1 0.6-1.9c0.3-0.7 0.6-1.3 0.9-1.9l1.9-3.5q3.9-7 7.8-14.2c10.4-19.1 21.3-38.9 32.3-59.2 11.1-20.2 22-40 32.4-59.1q7.9-14.4 15.4-28.2c1.3-2.2 2.5-4.5 3.9-6.8 1.3-2.3 3.2-4.3 5.6-5.6 4.5-2.6 10.3-2.8 15-0.6 2.3 1.1 4.4 2.7 5.9 4.7 1.6 2.1 2.6 4.3 3.8 6.4q3.5 6.5 6.9 12.7 6.8 12.5 13.2 24.2c8.6 15.6 16.5 30.2 23.7 43.5 14.5 26.6 26.2 48.1 34.3 63 4 7.4 7.2 13.2 9.3 17.1q1.6 2.9 2.4 4.5 0.8 1.5 0.8 1.5 0 0-0.9-1.5-0.9-1.5-2.5-4.4c-2.2-3.9-5.3-9.6-9.4-17-8.2-14.9-20-36.3-34.6-62.9-7.3-13.2-15.3-27.8-23.8-43.4q-6.5-11.7-13.3-24.2-3.4-6.2-6.9-12.6c-1.2-2.1-2.3-4.4-3.7-6.3-1.4-1.9-3.4-3.4-5.6-4.5-4.4-2-9.9-1.8-14.2 0.7-2.1 1.2-3.9 3.1-5.2 5.2-1.3 2.2-2.5 4.5-3.8 6.8q-7.5 13.8-15.4 28.2c-10.4 19.1-21.3 38.9-32.3 59.1-11.1 20.3-22 40.1-32.4 59.2q-3.9 7.2-7.8 14.2c-1.2 2.4-2.8 4.6-3.3 7.1-0.6 2.4-0.4 5.1 0.5 7.5 1.6 4.8 6.3 8.3 11.3 8.2q7.7 0 15.2 0c40 0 76 0.1 106.3 0.1 30.3 0 54.8 0.1 71.7 0.1 2.1-0.1 4-0.8 5.6-1.8 1.5-1 2.8-2.2 3.7-3.6 1.8-2.6 2.4-5.4 2.3-7.6 0-4.5-1.7-6.5-1.5-6.6z" fill="#000000"/>
					</g>
				</g>
				<g id="&lt;Group&gt;">
					<path id="&lt;Compound Path&gt;" class="s9" d="m675.3 646c0-8.8 7.1-15.4 17.1-15.4 10 0 16.9 6.6 16.9 15.4 0 8.7-6.9 15.7-16.9 15.7-10 0-17.1-7-17.1-15.7zm0.2-90.3h33.8l-5.7 66.5h-22.6z" fill="#000000"/>
				</g>
				<g id="&lt;Group&gt;">
					<g id="&lt;Group&gt;">
						<path id="&lt;Path&gt;" class="s9" d="m696.2 472.2c-0.1 0.2-2.3-1.1-6.3-1.3-4-0.2-9.6 1.1-14.4 4.8-4.8 3.8-7.8 8.7-9.6 12.3-1.8 3.6-2.6 6-2.8 5.9-0.1 0 0.1-0.6 0.4-1.7 0.4-1.1 0.9-2.7 1.8-4.5 1.6-3.7 4.5-8.8 9.5-12.8 5.1-3.9 11-5.1 15.1-4.7 2.1 0.2 3.7 0.7 4.8 1.2 1 0.4 1.6 0.8 1.5 0.8z" fill="#000000"/>
					</g>
				</g>
				<g id="&lt;Group&gt;">
					<g id="&lt;Group&gt;">
						<path id="&lt;Path&gt;" class="s9" d="m654.6 508.8c-0.2-0.1 0.8-2.3 2.2-4.7 1.5-2.5 2.8-4.4 3.1-4.2 0.2 0.1-0.7 2.2-2.2 4.7-1.5 2.5-2.8 4.3-3.1 4.2z" fill="#000000"/>
					</g>
				</g>
				<g id="&lt;Group&gt;" style="opacity: .3">
					<g id="&lt;Group&gt;">
						<path id="&lt;Path&gt;" class="s9" d="m741.4 518.5l-155 95.5-20.1 34.9 186-111.4z" fill="#000000"/>
					</g>
				</g>
				<g id="&lt;Group&gt;" style="opacity: .3">
					<g id="&lt;Group&gt;">
						<path id="&lt;Path&gt;" class="s9" d="m765.8 560.8l-205.4 121.2c0.6 2.7 2.4 6.3 4.4 8.6l204.6-123.5z" fill="#000000"/>
					</g>
				</g>
			</g>
		</g>
		<g id="&lt;Group&gt;">
			<g id="&lt;Group&gt;">
				<g id="&lt;Group&gt;">
					<g id="&lt;Group&gt;">
						<g id="&lt;Group&gt;">
							<path id="&lt;Path&gt;" class="s1" d="m1273.4 786.8c-16.4-18.1-41.4-24-63.3-17l-19.1-21-2.7-2.9-151.4-166.2c9.1-21.1 5.7-46.5-10.8-64.6-13.9-15.5-34.1-22-53.3-19.3l-7.4 2.9 25.8 17.3-1.4 28.1-20.8 18.9-28.1-1.3-18.3-20.3-7.6 3c-2.2 16.9 9.2 38.3 21.5 51.9 16.5 18.2 41.4 24 63.2 17l154 169 4.8 5.2 14.6 16c-9.1 21.1-5.7 46.5 10.7 64.6 12.4 13.6 28.7 22.7 45.7 22.2l7.6-3-18.3-20.2 1.3-28.1 20.9-18.9 28.1 1.4 10.7 23.2 7.6-3c4.6-18.8 0-39.5-14-54.9z" fill="#000000"/>
						</g>
					</g>
					<g id="&lt;Group&gt;" style="opacity: .3">
						<g id="&lt;Group&gt;">
							<path id="&lt;Path&gt;" class="s5" d="m1273.4 786.8c-16.4-18.1-41.4-24-63.3-17l-19.1-21-2.7-2.9-151.4-166.2c9.1-21.1 5.7-46.5-10.8-64.6-13.9-15.5-34.1-22-53.3-19.3l-7.4 2.9 25.8 17.3-1.4 28.1-20.8 18.9-28.1-1.3-18.3-20.3-7.6 3c-2.2 16.9 9.2 38.3 21.5 51.9 16.5 18.2 41.4 24 63.2 17l154 169 4.8 5.2 14.6 16c-9.1 21.1-5.7 46.5 10.7 64.6 12.4 13.6 28.7 22.7 45.7 22.2l7.6-3-18.3-20.2 1.3-28.1 20.9-18.9 28.1 1.4 10.7 23.2 7.6-3c4.6-18.8 0-39.5-14-54.9z" fill="#000000"/>
						</g>
					</g>
					<g id="&lt;Group&gt;">
						<g id="&lt;Group&gt;">
							<path id="&lt;Path&gt;" class="s1" d="m1265.8 789.8c-16.4-18.2-41.4-24-63.2-17l-19.2-21-2.7-3-151.4-166.2c9.1-21.1 5.7-46.4-10.7-64.6-14-15.4-34.2-21.9-53.3-19.2l18.3 20.2-1.3 28.1-20.9 18.9-28.1-1.4-18.3-20.2c-4.6 18.8 0 39.5 14 54.9 16.4 18.1 41.3 24 63.1 17l154 168.9 4.8 5.3 14.6 16c-9.1 21.1-5.7 46.4 10.7 64.6 14 15.4 34.2 21.9 53.3 19.2l-18.3-20.2 1.3-28.1 20.9-18.9 28.1 1.3 18.3 20.3c4.6-18.8 0-39.5-14-54.9z" fill="#000000"/>
						</g>
						<g id="&lt;Group&gt;">
							<g id="&lt;Group&gt;">
								<path id="&lt;Path&gt;" class="s3" d="m1265.8 789.8c0 0 0.9 0.9 2.6 2.9 1.5 2 3.9 5 6.2 9.4 2.4 4.4 4.7 10.2 6.1 17.4 1.3 7.2 1.6 15.9-0.7 25.2l-0.1 0.4-0.2-0.3c-5.5-6-11.7-12.8-18.4-20.2l0.1 0.1c-8.6-0.4-18-0.9-28-1.3l0.2-0.1c-6.5 5.9-13.5 12.3-20.8 18.9l0.1-0.2c-0.4 8.7-0.9 18.2-1.4 28.1l-0.1-0.3c5.7 6.3 12 13.2 18.4 20.2l0.5 0.6-0.7 0.1c-9.5 1.3-19.7 0.4-29.3-3-9.6-3.5-18.6-9.6-25.6-17.8-7-8.1-12-18.4-13.8-29.6-1.8-11.2-0.5-23.1 4.2-34v0.5c-51.3-56.3-110.3-121-173.3-190.2l0.5 0.2c-10.6 3.4-22.5 3.8-33.8 0.9-11.3-2.8-21.9-9.2-29.9-18.1-6.8-7.4-11.6-16.4-14-26.1-2.4-9.6-2.4-19.7-0.1-29.2l0.2-1 0.7 0.7q9.2 10.2 18.3 20.3l-0.3-0.2q14.1 0.7 28.1 1.4l-0.4 0.1q10.5-9.5 20.8-18.9l-0.2 0.4q0.7-14.2 1.4-28.1l0.1 0.3q-9.2-10.2-18.3-20.2l-0.6-0.7 0.9-0.1c11.3-1.6 22.9 0 33 4.5 10.2 4.5 19 11.7 25.2 20.5 6.2 8.8 10.1 19 11 29.4 1 10.4-0.7 20.9-4.7 30.1l-0.1-0.5c75.1 82.6 135.5 149 173.1 190.4l-0.2-0.1c10.8-3.5 21.1-3.3 29.6-1.8 8.5 1.6 15.2 4.6 20.2 7.7 5 3 8.3 6 10.5 8 2 2.2 3 3.3 3 3.3 0 0-1-1.1-3.1-3.2-2.3-1.9-5.5-5-10.5-7.9-5-3-11.8-6-20.2-7.6-8.4-1.4-18.6-1.5-29.4 1.9l-0.1 0.1-0.1-0.1c-37.7-41.3-98.2-107.7-173.4-190l-0.2-0.3 0.1-0.2c3.9-9.2 5.6-19.4 4.6-29.7-0.9-10.2-4.7-20.3-10.9-29-6.1-8.6-14.8-15.7-24.8-20.1-10-4.4-21.4-6-32.5-4.4l0.3-0.9q9.1 10 18.4 20.3l0.1 0.1v0.2q-0.7 13.9-1.3 28.1v0.2l-0.2 0.2q-10.3 9.3-20.8 18.9l-0.2 0.1h-0.2q-13.9-0.7-28.1-1.4h-0.2l-0.1-0.1q-9.2-10.1-18.4-20.3l0.9-0.2c-2.3 9.4-2.3 19.3 0.1 28.8 2.3 9.4 7.1 18.3 13.7 25.6 7.9 8.8 18.3 15 29.5 17.8 11.1 2.9 22.8 2.4 33.2-0.9l0.3-0.1 0.2 0.2c63 69.2 122 133.9 173.3 190.3l0.2 0.2-0.1 0.3c-4.6 10.7-5.9 22.5-4.1 33.4 1.7 11.1 6.7 21.2 13.6 29.3 6.9 8.1 15.7 14.1 25.2 17.5 9.5 3.5 19.5 4.4 28.9 3l-0.2 0.6c-6.5-7.1-12.7-13.9-18.4-20.2l-0.1-0.1v-0.2c0.5-9.8 1-19.3 1.4-28v-0.2l0.1-0.1c7.4-6.6 14.4-13 20.9-18.8l0.1-0.1h0.1c10 0.5 19.4 0.9 28.1 1.4h0.1l0.1 0.1c6.7 7.4 12.9 14.2 18.3 20.2l-0.4 0.1c2.3-9.2 2-17.8 0.8-25-1.4-7.2-3.6-13-6-17.4-2.3-4.4-4.6-7.4-6.1-9.5-1.6-1.9-2.5-2.9-2.5-2.9z" fill="#000000"/>
							</g>
						</g>
					</g>
					<g id="&lt;Group&gt;">
						<g id="&lt;Group&gt;">
							<g id="&lt;Group&gt;">
								<path id="&lt;Path&gt;" class="s3" d="m1022.4 592.3c0 0.1-0.2 0.6-0.7 1.5-0.5 1-1.2 2.3-2.3 3.8-2.1 3.1-5.6 7-10.1 10.6-4.6 3.4-9.3 5.8-12.8 7-1.8 0.7-3.2 1.1-4.3 1.3-1 0.2-1.6 0.3-1.6 0.3 0-0.2 2.2-0.8 5.6-2.3 3.4-1.4 8-3.7 12.4-7.2 4.5-3.4 8-7.2 10.2-10.1 2.3-3 3.4-4.9 3.6-4.9z" fill="#000000"/>
							</g>
						</g>
					</g>
				</g>
				<g id="&lt;Group&gt;">
					<g id="&lt;Group&gt;">
						<g id="&lt;Group&gt;">
							<g id="&lt;Group&gt;">
								<g id="&lt;Group&gt;">
									<g id="&lt;Group&gt;">
										<g id="&lt;Group&gt;">
											<g id="&lt;Group&gt;">
												<path id="&lt;Path&gt;" class="s7" d="m1191.5 664.5l-57.6-26.8-51.4-6.4 18.9 15.9c0 0-66.5 23.2-67.7 28.4-1.1 5.2 5.3 19.3 17 16.7 0 0-6.6 7.9-3.9 16.8 2.8 8.9 8.8 10.5 20 8.4 0 0-7.6 11.4-1.6 17.2 5.9 5.8 15.2 4.3 15.2 4.3 0 0 0.1 13.9 7.4 15.1 7.4 1.2 27.8-0.2 35.4-2.6 7.6-2.3 38.7-11.9 38.7-11.9l25.2-5.6z" fill="#000000"/>
											</g>
										</g>
									</g>
								</g>
							</g>
							<g id="&lt;Group&gt;">
								<g id="&lt;Group&gt;">
									<g id="&lt;Group&gt;">
										<g id="&lt;Group&gt;">
											<g id="&lt;Group&gt;">
												<g id="&lt;Group&gt;">
													<path id="&lt;Path&gt;" class="s8" d="m1085.6 682.1c0.3 0.8-7.4 3.7-17 6.5-9.7 2.8-17.7 4.4-17.9 3.7-0.3-0.8 7.4-3.7 17.1-6.5 9.6-2.8 17.6-4.5 17.8-3.7z" fill="#000000"/>
												</g>
											</g>
										</g>
									</g>
								</g>
							</g>
							<g id="&lt;Group&gt;">
								<g id="&lt;Group&gt;">
									<g id="&lt;Group&gt;">
										<g id="&lt;Group&gt;">
											<g id="&lt;Group&gt;">
												<g id="&lt;Group&gt;">
													<path id="&lt;Path&gt;" class="s8" d="m1095.4 709.5c0.2 0.7-5.8 3.2-13.6 5.6-7.7 2.3-14.1 3.5-14.4 2.8-0.2-0.8 5.9-3.3 13.6-5.6 7.7-2.3 14.2-3.6 14.4-2.8z" fill="#000000"/>
												</g>
											</g>
										</g>
									</g>
								</g>
							</g>
							<g id="&lt;Group&gt;">
								<g id="&lt;Group&gt;">
									<g id="&lt;Group&gt;">
										<g id="&lt;Group&gt;">
											<g id="&lt;Group&gt;">
												<g id="&lt;Group&gt;">
													<path id="&lt;Path&gt;" class="s8" d="m1104.2 732.2c0.1 0.9-5.4 2-11.9 3.6-6.4 1.7-11.5 4-11.9 3.2-0.4-0.6 4.3-4.1 11.2-5.9 6.9-1.7 12.5-1.6 12.6-0.9z" fill="#000000"/>
												</g>
											</g>
										</g>
									</g>
								</g>
							</g>
							<g id="&lt;Group&gt;">
								<g id="&lt;Group&gt;">
									<g id="&lt;Group&gt;">
										<g id="&lt;Group&gt;">
											<g id="&lt;Group&gt;">
												<g id="&lt;Group&gt;">
													<path id="&lt;Path&gt;" class="s8" d="m1111.5 645c0.2 0.8-7.4 3.5-16.7 6.7-9.3 3.2-17 5.7-17.3 5-0.3-0.7 6.9-4.4 16.4-7.7 9.4-3.2 17.4-4.8 17.6-4z" fill="#000000"/>
												</g>
											</g>
										</g>
									</g>
								</g>
							</g>
						</g>
					</g>
				</g>
				<g id="&lt;Group&gt;">
					<path id="&lt;Path&gt;" class="s7" d="m1180.7 659.5l124.6 45.1-7.3 85.5-137.2-55.3z" fill="#000000"/>
				</g>
			</g>
			<g id="&lt;Group&gt;">
				<path id="&lt;Path&gt;" class="s4" d="m1340.5 509.9c0 0 16.3 16.7 25.7 46.9 9.4 30 54.1 158.1 52.9 198.8-1.1 42.1-29.5 72.2-91.8 55.5-37.1-9.9-81.4-25.9-81.4-25.9l31.5-103.5 24.6 6.2-39.8-74.6z" fill="#000000"/>
			</g>
			<g id="&lt;Group&gt;">
				<g id="&lt;Group&gt;">
					<path id="&lt;Path&gt;" class="s3" d="m1312 558.8c0.3 0.1-17 24.7-38.5 54.8-21.4 30.1-39 54.4-39.3 54.2-0.2-0.2 17-24.7 38.5-54.8 21.5-30.1 39.1-54.4 39.3-54.2z" fill="#000000"/>
				</g>
			</g>
			<g id="&lt;Group&gt;">
				<g id="&lt;Group&gt;">
					<path id="&lt;Path&gt;" class="s3" d="m1359.7 702.1c-0.1 0-1.1-0.6-3-1.5-2-0.9-4.9-2-8.6-3-3.7-1-8.2-1.9-13.1-3-5-1.1-10.5-2.3-16.2-3.6-11.5-2.6-21.8-4.9-29.3-6.7-3.6-0.9-6.6-1.6-8.9-2.2-2.1-0.5-3.2-0.8-3.2-0.9 0-0.1 1.2 0.1 3.3 0.5 2.3 0.5 5.3 1.1 8.9 1.9 7.6 1.6 18 3.8 29.4 6.4 5.8 1.3 11.2 2.5 16.2 3.6 4.9 1.2 9.4 2.2 13.1 3.3 3.7 1.1 6.6 2.4 8.5 3.4q1.5 0.7 2.2 1.2 0.7 0.5 0.7 0.6z" fill="#000000"/>
				</g>
			</g>
			<g id="&lt;Group&gt;" style="opacity: .3">
				<g id="&lt;Group&gt;">
					<path id="&lt;Path&gt;" class="s5" d="m1391.5 706.6c-0.5-5-4.2-9.1-8.5-11.5-4.4-2.3-9.4-3.2-14.4-3.8-22.3-3.1-45-4-67.6-4.8l2.1 0.9c27.9 5.2 55.3 13.1 81.5 23.8 1.5 0.6 3.3 1.2 4.7 0.5 1.9-0.8 2.4-3.1 2.2-5.1z" fill="#000000"/>
				</g>
			</g>
		</g>
		<g id="&lt;Group&gt;">
			<g id="&lt;Group&gt;">
				<g id="&lt;Group&gt;" style="opacity: .3">
					<g id="&lt;Group&gt;">
						<path id="&lt;Path&gt;" class="s5" d="m878.3 309.8c-21-3.5-46.1 2.6-67.1-1-3.2-0.5-6.6-1-9.4 0.6-3.3 1.9-4.4 6.1-4.6 9.9-0.4 10.6 4.5 21 12.1 28.3 7.6 7.4 17.8 11.7 28.2 13.5 8.4 1.4 17.4 1.2 24.9-2.9 13-7.1 19.3-33.9 15.9-48.4z" fill="#000000"/>
					</g>
				</g>
				<g id="&lt;Group&gt;">
					<g id="&lt;Group&gt;">
						<g id="&lt;Group&gt;">
							<path id="&lt;Path&gt;" class="s7" d="m796.8 348.3c0 0-12.8-15-14.6-21.9-1.2-4.5-0.6-17.3-0.1-25.4 0.4-5.5 3.9-10.6 9.1-12.4 1.9-0.6 3.6-0.7 4.8 0.4 0 0 0.8-1.4 5.8-6.5 5-5.2 7.4-8.6 18.4-5.4 0 0 8.1-8.6 12.7-7.9 4.7 0.6 9.3 2 9.3 2 0 0 17.7-0.8 21.4 4.8 1.6 2.5 4.8 4.2 8 5.4 5.6 2 10.2 6.1 12.7 11.5 3.3 7.4 3.5 15.5 3.5 15.5l-18 0.7c0 0 1.2 41.4-3.3 44.8-4.5 3.3-6.3 2.1-6.3 2.1 0 0-3.4 9.7-16.9 2.5 0 0-11.2 3.4-16-1.2-4.8-4.6-22.4-49-22.4-49l0.5 22.1c0 0 9.3 14.2 4.8 17.6-4.6 3.3-13.4 0.3-13.4 0.3z" fill="#000000"/>
						</g>
					</g>
				</g>
			</g>
			<g id="&lt;Group&gt;">
				<g id="&lt;Group&gt;">
					<path id="&lt;Path&gt;" class="s8" d="m819.3 292.1c0 0 0.4 0.9 1 2.6q1 2.9 2.4 7.2c2 6.1 4.8 14.6 7.7 23.9 3 9.4 5.3 17.9 8.1 23.7 1.3 2.9 2.7 5.1 3.7 6.6 1 1.5 1.6 2.3 1.5 2.3q0 0.1-0.5-0.5-0.5-0.5-1.3-1.6c-1.1-1.4-2.6-3.6-4.1-6.5-2.9-5.8-5.4-14.3-8.4-23.7-2.9-9.3-5.5-17.8-7.4-24q-1.3-4.4-2.1-7.3c-0.5-1.7-0.7-2.7-0.6-2.7z" fill="#000000"/>
				</g>
			</g>
			<g id="&lt;Group&gt;">
				<g id="&lt;Group&gt;">
					<path id="&lt;Path&gt;" class="s8" d="m841.4 287c0.1 0 0.4 0.9 0.9 2.7q0.9 2.9 2.2 7.4c1.7 6.3 4.1 14.9 6.6 24.5 2.5 9.6 4.8 18.4 6.3 24.7q1.1 4.5 1.9 7.5c0.4 1.7 0.6 2.7 0.5 2.8-0.1 0-0.4-1-0.9-2.7q-0.9-3-2.2-7.4c-1.7-6.3-4.1-15-6.6-24.6-2.5-9.6-4.8-18.3-6.4-24.6q-1.1-4.6-1.8-7.5c-0.4-1.8-0.6-2.8-0.5-2.8z" fill="#000000"/>
				</g>
			</g>
		</g>
	</g>
</svg>